<svg width="202" height="66" viewBox="0 0 202 66" fill="none" xmlns="http://www.w3.org/2000/svg">
<g clip-path="url(#clip0)">
<path d="M189.67 1.78369H13.0755C6.869 1.78369 1.83765 6.81504 1.83765 13.0215V53.1567C1.83765 59.3631 6.869 64.3945 13.0755 64.3945H189.67C195.877 64.3945 200.908 59.3631 200.908 53.1567V13.0215C200.908 6.81504 195.877 1.78369 189.67 1.78369Z" fill="#F9F9F9" stroke="#D2D7E1" stroke-width="0.891892"/>
<path d="M49.7788 23.2189L50.2325 23.2406C52.4049 23.3146 54.4258 24.3757 55.6636 26.103C53.6932 27.2627 52.4807 29.3602 52.4555 31.6056C52.4555 34.1719 54.0216 36.4668 56.4214 37.4291C55.9415 38.885 55.2594 40.2668 54.35 41.5253C53.1375 43.3019 51.8492 45.0539 49.8283 45.0786C47.858 45.1279 47.2012 43.9435 44.953 43.9435C42.6543 43.9435 41.9722 45.0539 40.0777 45.1279C38.1578 45.202 36.6927 43.2279 35.4297 41.4759C32.9289 37.898 30.9585 31.3589 33.5856 26.9173C34.8234 24.7458 37.1474 23.3639 39.6735 23.2899C41.5933 23.2652 43.3868 24.5731 44.5741 24.5731C45.7361 24.5731 47.959 23.0185 50.2325 23.2406L49.7788 23.2189ZM50.2578 16.2327C50.3841 17.9106 49.8536 19.5886 48.7421 20.8717C47.6812 22.1795 46.0645 22.9198 44.3215 22.8951C44.2204 21.2665 44.7762 19.6626 45.8877 18.4288C47.0244 17.195 48.5653 16.4054 50.2578 16.2327Z" fill="black"/>
<path d="M78.1681 17.2008C75.3362 17.2008 73.1689 19.3392 73.1689 22.359C73.1689 25.3932 75.3362 27.5172 78.1681 27.5172C80.9278 27.5172 82.9217 25.4654 83.0807 22.7924V22.0556H77.7635V22.8791H82.0115C81.8525 25.1765 80.2921 26.6069 78.1681 26.6069C75.9286 26.6069 74.2092 24.9742 74.2092 22.359C74.2092 19.7438 75.9286 18.1255 78.1681 18.1255C79.7864 18.1255 81.0145 18.9636 81.578 20.2639H82.7628C82.0403 18.3423 80.3354 17.2008 78.1681 17.2008ZM88.2999 20.2784C89.7592 20.2784 91.0885 21.2031 91.0451 23.0381H85.4968C85.6124 21.2031 86.8695 20.2784 88.2999 20.2784ZM91.9554 24.9164H90.8862C90.5972 25.9712 89.687 26.6791 88.3432 26.6791C86.8695 26.6791 85.5835 25.7111 85.4968 23.8616H92.0421C92.071 23.5871 92.071 23.3848 92.071 23.067C92.071 21.0586 90.655 19.4115 88.3432 19.4115C86.0748 19.4115 84.471 20.9575 84.471 23.4715C84.471 25.9712 86.1037 27.5316 88.3432 27.5316C90.3227 27.5316 91.5942 26.4046 91.9554 24.9164ZM94.2104 25.2776C94.2104 26.8525 94.9473 27.416 96.3199 27.416H97.4036V26.5491H96.4788C95.5686 26.5491 95.2363 26.2457 95.2363 25.2776V20.3795H97.4036V19.5271H95.2363V17.5476H94.2104V19.5271H93.1123V20.3795H94.2104V25.2776ZM110.463 23.4715C110.463 20.9575 108.744 19.4115 106.519 19.4115C104.308 19.4115 102.574 20.9575 102.574 23.4715C102.574 25.9712 104.265 27.5316 106.49 27.5316C108.715 27.5316 110.463 25.9712 110.463 23.4715ZM103.6 23.4715C103.6 21.3042 105.002 20.2928 106.504 20.2928C108.007 20.2928 109.423 21.3042 109.423 23.4715C109.423 25.6388 107.978 26.6502 106.49 26.6502C104.987 26.6502 103.6 25.6388 103.6 23.4715ZM118.216 27.416H119.213V22.7924C119.213 20.4807 117.797 19.3826 116.006 19.3826C114.835 19.3826 113.824 19.8883 113.318 20.8708V19.5271H112.307V27.416H113.318V23.1103C113.318 21.1886 114.344 20.2639 115.818 20.2639C117.263 20.2639 118.216 21.1598 118.216 22.908V27.416ZM125.704 25.2776C125.704 26.8525 126.441 27.416 127.813 27.416H128.897V26.5491H127.972C127.062 26.5491 126.73 26.2457 126.73 25.2776V20.3795H128.897V19.5271H126.73V17.5476H125.704V19.5271H124.606V20.3795H125.704V25.2776ZM130.565 27.416H131.577V23.1103C131.577 21.1886 132.602 20.2639 134.076 20.2639C135.521 20.2639 136.475 21.1598 136.475 22.908V27.416H137.472V22.7924C137.472 20.4807 136.07 19.3826 134.322 19.3826C133.123 19.3826 132.082 19.9027 131.577 20.8708V16.724H130.565V27.416ZM143.075 20.2784C144.534 20.2784 145.864 21.2031 145.82 23.0381H140.272C140.387 21.2031 141.645 20.2784 143.075 20.2784ZM146.73 24.9164H145.661C145.372 25.9712 144.462 26.6791 143.118 26.6791C141.645 26.6791 140.359 25.7111 140.272 23.8616H146.817C146.846 23.5871 146.846 23.3848 146.846 23.067C146.846 21.0586 145.43 19.4115 143.118 19.4115C140.85 19.4115 139.246 20.9575 139.246 23.4715C139.246 25.9712 140.879 27.5316 143.118 27.5316C145.098 27.5316 146.369 26.4046 146.73 24.9164Z" fill="#797979"/>
<path d="M82.9362 47.2214H85.7874L80.9519 33.7553H77.8117L72.9762 47.2214H75.8082L76.6943 44.6592H82.05L82.9362 47.2214ZM81.3179 42.5015H77.4264L79.3722 36.8762L81.3179 42.5015ZM90.2919 38.0899V36.5487H87.5948V52.3074H90.2919V45.6995C90.9469 46.5664 92.1413 47.3948 93.8174 47.3948C96.553 47.3948 98.6914 45.1794 98.6914 41.8465C98.6914 38.5137 96.553 36.3753 93.8174 36.3753C92.1606 36.3753 90.9276 37.1844 90.2919 38.0899ZM95.9365 41.8465C95.9365 43.8693 94.5687 45.0252 93.1046 45.0252C91.6597 45.0252 90.2919 43.9079 90.2919 41.8851C90.2919 39.8623 91.6597 38.7449 93.1046 38.7449C94.5687 38.7449 95.9365 39.8237 95.9365 41.8465ZM103.348 38.0899V36.5487H100.651V52.3074H103.348V45.6995C104.003 46.5664 105.198 47.3948 106.874 47.3948C109.609 47.3948 111.748 45.1794 111.748 41.8465C111.748 38.5137 109.609 36.3753 106.874 36.3753C105.217 36.3753 103.984 37.1844 103.348 38.0899ZM108.993 41.8465C108.993 43.8693 107.625 45.0252 106.161 45.0252C104.716 45.0252 103.348 43.9079 103.348 41.8851C103.348 39.8623 104.716 38.7449 106.161 38.7449C107.625 38.7449 108.993 39.8237 108.993 41.8465ZM127.699 43.3299C127.699 38.5908 120.803 40.0934 120.803 37.3964C120.803 36.2983 121.592 35.7781 122.652 35.8166C123.808 35.8359 124.521 36.5294 124.579 37.4156H127.545C127.372 34.9882 125.484 33.5819 122.729 33.5819C119.955 33.5819 117.99 35.046 117.99 37.4734C117.971 42.3474 124.906 40.5943 124.906 43.5033C124.906 44.4666 124.155 45.1408 122.883 45.1408C121.631 45.1408 120.918 44.428 120.841 43.3492H117.951C117.99 45.8922 120.148 47.3563 122.941 47.3563C126.004 47.3563 127.699 45.4491 127.699 43.3299ZM130.462 43.9079C130.462 46.3545 131.829 47.2214 133.871 47.2214H135.567V44.9482H134.315C133.467 44.9482 133.178 44.6399 133.178 43.9271V38.7642H135.567V36.5487H133.178V33.9094H130.462V36.5487H129.19V38.7642H130.462V43.9079ZM147.813 41.8851C147.813 38.5137 145.405 36.3753 142.323 36.3753C139.24 36.3753 136.832 38.5137 136.832 41.8851C136.832 45.2372 139.163 47.3948 142.246 47.3948C145.347 47.3948 147.813 45.2372 147.813 41.8851ZM139.568 41.8851C139.568 39.7467 140.859 38.7256 142.284 38.7256C143.71 38.7256 145.039 39.7467 145.039 41.8851C145.039 44.0042 143.671 45.0445 142.246 45.0445C140.801 45.0445 139.568 44.0042 139.568 41.8851ZM152.489 41.9043C152.489 39.843 153.452 39.2265 155.051 39.2265H155.764V36.3946C154.28 36.3946 153.163 37.1074 152.489 38.2055V36.5487H149.792V47.2214H152.489V41.9043ZM162.165 38.5908C163.553 38.5908 164.67 39.477 164.708 40.8833H159.642C159.854 39.4192 160.875 38.5908 162.165 38.5908ZM167.232 43.8693H164.323C163.976 44.5821 163.341 45.1601 162.185 45.1601C160.836 45.1601 159.757 44.2739 159.623 42.6942H167.425C167.483 42.3474 167.502 42.0007 167.502 41.6539C167.502 38.4752 165.325 36.3753 162.243 36.3753C159.083 36.3753 156.887 38.5137 156.887 41.8851C156.887 45.2372 159.141 47.3948 162.243 47.3948C164.882 47.3948 166.654 45.8344 167.232 43.8693Z" fill="black"/>
</g>
<defs>
<clipPath id="clip0">
<rect width="201.568" height="66" fill="white" transform="translate(0.0539551)"/>
</clipPath>
</defs>
</svg>
