<svg width="15" height="17" viewBox="0 0 15 17" fill="none" xmlns="http://www.w3.org/2000/svg">
<path d="M14.4697 4.76445L10.6472 3.82384L10.3251 0.530941H1.91044C1.07028 0.474366 0.340582 1.10323 0.272461 1.94224V15.1762C0.340582 16.0156 1.07028 16.644 1.91044 16.5875H12.8317C13.6719 16.644 14.4016 16.0156 14.4697 15.1762V4.76445Z" fill="#F16521"/>
<path fill-rule="evenodd" clip-rule="evenodd" d="M7.44835 4.26788H8.49284L9.93636 8.35634H8.77451L8.52218 7.55593H7.41314L7.16669 8.35634H5.99897L7.44835 4.26788ZM8.34041 6.80775L7.97073 5.5409L7.58345 6.80775H8.34041ZM3.43828 7.2508C3.45002 7.25872 3.47569 7.27239 3.51456 7.29111C3.55344 7.31054 3.60258 7.32998 3.66126 7.34869C3.71994 7.36813 3.78669 7.3854 3.86077 7.40052C3.93926 7.41635 4.01921 7.42355 4.10136 7.42355C4.22238 7.42355 4.32067 7.40484 4.39476 7.36597C4.46884 7.32782 4.52605 7.26663 4.56493 7.1817C4.6038 7.09388 4.62947 6.98231 4.64121 6.84771C4.65295 6.70951 4.65881 6.54252 4.65881 6.34673V4.26795H5.80306V6.34673C5.80306 6.65768 5.78546 6.942 5.75025 7.19897C5.71504 7.45234 5.63876 7.66972 5.5214 7.84967C5.40404 8.03034 5.23167 8.1707 5.00502 8.27003C4.78204 8.37009 4.48057 8.41975 4.10136 8.41975C3.74928 8.41975 3.44782 8.33554 3.19769 8.16638L3.43828 7.2508ZM11.7481 12.3077C11.7481 12.492 11.7093 12.6518 11.6308 12.7856C11.5523 12.9167 11.4452 13.0239 11.308 13.1081C11.1709 13.1931 11.011 13.2564 10.8269 13.2981C10.6472 13.337 10.455 13.3557 10.2518 13.3557H8.2039V9.26727H10.6215C10.766 9.26727 10.8973 9.29822 11.0146 9.3594C11.132 9.42131 11.2318 9.50192 11.3139 9.60126C11.3961 9.69771 11.4584 9.80856 11.5017 9.93524C11.5486 10.0583 11.5721 10.185 11.5721 10.3153C11.5721 10.5075 11.5215 10.6918 11.4195 10.8681C11.322 11.0409 11.1731 11.1719 10.9736 11.2597C11.212 11.3288 11.3997 11.4497 11.5369 11.6225C11.6777 11.7916 11.7481 12.0198 11.7481 12.3077ZM9.34843 10.8514V10.2237H10.1641C10.2382 10.2237 10.3027 10.2489 10.3577 10.2986C10.4127 10.3446 10.4399 10.4238 10.4399 10.5347C10.4399 10.6614 10.4069 10.7463 10.3401 10.788C10.2778 10.8305 10.2074 10.8514 10.1289 10.8514H9.34843ZM10.5044 11.8302C10.5594 11.8957 10.5866 11.9785 10.5866 12.0778C10.5866 12.1858 10.5536 12.2678 10.4868 12.3254C10.4245 12.383 10.346 12.4118 10.2521 12.4118H9.34844V11.7265H10.2932C10.379 11.7265 10.4494 11.7611 10.5044 11.8302ZM6.34787 11.2025V13.3562H7.49212V9.2677H6.24811L5.34445 11.191L4.44665 9.2677H3.19678V13.3562H4.34103V11.2025L5.03931 12.717H5.64958L6.34787 11.2025Z" fill="white"/>
<path d="M12.2454 4.76336C11.9874 4.76259 11.0242 4.48867 10.5885 4.05431C10.1481 3.61531 10.2365 3.01446 10.2358 2.75368V0.529851C10.3605 0.528311 10.4802 0.579883 10.5648 0.671096L14.328 4.4343C14.4196 4.51935 14.4708 4.63866 14.4693 4.76336H12.2454Z" fill="#D95129"/>
</svg>
