<svg width="24" height="34" viewBox="0 0 24 34" fill="none" xmlns="http://www.w3.org/2000/svg">
<path fill-rule="evenodd" clip-rule="evenodd" d="M11.4686 3.90841V0.41674H12.6325V3.90841H11.4686ZM2.89423 7.96296L0.259033 5.67222L1.02261 4.79383L3.65781 7.08457L2.89423 7.96296ZM21.3615 7.36236L23.9967 5.07162L23.2331 4.19323L20.5979 6.48397L21.3615 7.36236Z" fill="#F16521"/>
<path fill-rule="evenodd" clip-rule="evenodd" d="M12.3513 6.23735C17.4227 6.31605 21.5096 10.4517 21.5096 15.5419C21.5096 17.4066 20.9609 19.1431 20.0164 20.599C18.3981 23.0932 17.5214 25.9953 17.5214 28.9684V28.9687C17.5214 29.5017 17.1293 29.9432 16.6177 30.0203V32.7301C15.2336 33.2042 13.749 33.462 12.2042 33.462C10.6593 33.462 9.17477 33.2042 7.79061 32.7301V30.0204C7.27877 29.9435 6.88634 29.502 6.88634 28.9687C6.88634 26.0222 6.05882 23.1229 4.43436 20.6647C3.45902 19.1888 2.89302 17.4187 2.89823 15.5159C2.91237 10.3478 7.1838 6.15711 12.3513 6.23735ZM13.0401 22.0551L14.4572 17.2055H14.2113C14.0797 17.2054 13.9535 17.157 13.8558 17.0692L13.1566 16.4407L12.5595 16.9775C12.3568 17.1597 12.0511 17.1596 11.8485 16.9775L11.2514 16.4407L10.5524 17.0691C10.4546 17.1569 10.3285 17.2054 10.1969 17.2054H9.95112L11.3682 22.0551H13.0401ZM10.8412 22.1474L9.44069 17.3545C9.39326 17.1923 9.42426 17.0217 9.52561 16.8864C9.62701 16.7512 9.78207 16.6736 9.95107 16.6736H10.1968L10.8958 16.0452C11.0985 15.863 11.4042 15.863 11.6068 16.0452L12.204 16.582L12.8011 16.0452C13.0038 15.863 13.3094 15.863 13.512 16.0451L14.2112 16.6736H14.4572C14.6261 16.6736 14.7813 16.7511 14.8826 16.8864C14.984 17.0216 15.015 17.1923 14.9675 17.3545L13.5671 22.1473C13.7074 22.243 13.7995 22.4042 13.7995 22.5869V30.0314H10.609V22.5869C10.609 22.4043 10.701 22.2432 10.8412 22.1474Z" fill="#F16521"/>
</svg>
