<svg width="28" height="28" viewBox="0 0 28 28" fill="none" xmlns="http://www.w3.org/2000/svg">
<path fill-rule="evenodd" clip-rule="evenodd" d="M2.11224 10.1746C2.11224 7.05576 3.31952 4.10465 5.5329 1.89127C5.9353 1.48887 5.9353 0.851661 5.5329 0.482764C5.13049 0.0803608 4.49328 0.0803608 4.12439 0.482764C1.54211 3.06504 0.100098 6.5192 0.100098 10.1746C0.100098 13.83 1.54211 17.2841 4.12439 19.8664C4.32562 20.0677 4.59387 20.1682 4.82861 20.1682C5.06335 20.1682 5.33166 20.0677 5.53283 19.8664C5.93524 19.464 5.93524 18.8268 5.53283 18.4579C3.31952 16.2445 2.11224 13.2934 2.11224 10.1746ZM19.1138 16.4453C18.8791 16.4453 18.6108 16.3447 18.4096 16.1435C18.0071 15.7746 18.0071 15.1374 18.4095 14.7015C20.9247 12.1527 20.9247 8.06143 18.4095 5.54624C18.0071 5.17734 18.0071 4.54013 18.4095 4.13773C18.7784 3.73532 19.4156 3.73532 19.818 4.13773C21.4277 5.74741 22.2996 7.8602 22.2996 10.1406C22.2996 12.421 21.4278 14.5337 19.818 16.1435C19.6169 16.3447 19.3485 16.4453 19.1138 16.4453ZM8.51884 16.4459C8.2841 16.4459 8.01585 16.3453 7.81461 16.1441C6.20487 14.5344 5.33299 12.4216 5.33292 10.1747C5.33292 7.8943 6.20481 5.78157 7.81455 4.17183C8.18345 3.76942 8.82065 3.76942 9.22306 4.17183C9.62546 4.54072 9.62546 5.17793 9.22306 5.58033C6.70786 8.1291 6.70786 12.2204 9.22306 14.7356C9.62546 15.1045 9.62546 15.7417 9.22306 16.1441C9.02189 16.3453 8.75358 16.4459 8.51884 16.4459ZM22.0997 0.482816C22.4686 0.0804124 23.1058 0.0804124 23.5082 0.482816C28.8739 5.81497 28.8739 14.5343 23.5081 19.8665C23.3069 20.0677 23.0386 20.1683 22.8039 20.1683C22.5691 20.1683 22.3009 20.0677 22.0997 19.8665C21.6973 19.4976 21.6973 18.8604 22.0997 18.458C26.6605 13.8971 26.6605 6.45217 22.0997 1.89132C21.6973 1.52243 21.6973 0.885219 22.0997 0.482816ZM14.5998 13.9701V26.649C14.5998 27.1267 14.2125 27.514 13.7348 27.514C13.2571 27.514 12.8698 27.1267 12.8698 26.649V13.9021C12.7332 13.871 12.608 13.8444 12.5073 13.83C12.1385 13.6958 11.8031 13.5282 11.5348 13.3269C11.5348 13.2934 11.5013 13.2934 11.5013 13.2934C10.5288 12.6227 9.95864 11.449 9.95864 10.2082C9.95864 8.06185 11.669 6.35153 13.8153 6.35153C15.9616 6.35153 17.6719 8.09543 17.7054 10.2082C17.7054 11.4489 17.1353 12.5892 16.1627 13.2934H16.1292C15.8274 13.4947 15.5255 13.6623 15.1902 13.7965C14.9934 13.8752 14.7966 13.9308 14.5998 13.9701Z" fill="#F16521"/>
</svg>
