<svg width="27" height="28" viewBox="0 0 27 28" fill="none" xmlns="http://www.w3.org/2000/svg">
<path fill-rule="evenodd" clip-rule="evenodd" d="M21.2933 6.77317C23.295 9.07588 24.3297 12.0018 24.1747 15.0056C24.1466 15.5517 24.5555 16.0221 25.0787 16.0455C25.6234 16.0936 26.077 15.6993 26.0813 15.1739C26.2621 11.6695 25.0716 8.22697 22.7255 5.5281C20.3794 2.82924 17.1361 1.17123 13.6406 0.862518C13.3682 0.838461 13.1127 0.93018 12.9456 1.07543C12.7785 1.22068 12.6521 1.46097 12.6381 1.73403C12.6099 2.28013 13.0189 2.75059 13.5421 2.77396C16.5381 3.03861 19.2915 4.47046 21.2933 6.77317ZM13.4042 5.89502C13.1318 5.87096 12.8763 5.96268 12.7092 6.10793C12.5421 6.25319 12.4156 6.49347 12.4016 6.76653C12.3734 7.31263 12.7824 7.78309 13.3056 7.80646C16.7103 8.10716 19.3361 11.1279 19.1816 14.566C19.1534 15.1121 19.5624 15.5826 20.0856 15.606C20.6303 15.6541 21.0839 15.2598 21.0882 14.7344C21.2009 12.5498 20.4655 10.4505 19.0019 8.76678C17.5598 7.10785 15.5832 6.08747 13.4042 5.89502ZM18.0267 18.8835C19.427 19.343 20.8919 19.5759 22.3657 19.5732C23.4203 19.5732 24.2752 20.4282 24.2757 21.4823V25.9263C24.2757 26.9813 23.4206 27.8363 22.3657 27.8363C10.0666 27.8212 0.0999151 17.8543 0.0847168 5.55526C0.0847168 4.50027 0.93982 3.64526 1.99472 3.64526H6.4511C7.50565 3.64615 8.36022 4.50116 8.36022 5.55526C8.35826 7.03154 8.59264 8.49804 9.05436 9.90055C9.27398 10.5867 9.09187 11.3386 8.58242 11.8488L6.56487 14.5302C8.04674 17.481 10.4409 19.8745 13.3916 21.3561L16.1389 19.2835C16.6445 18.8089 17.3721 18.6551 18.0267 18.8835Z" fill="#F16521"/>
</svg>
