<svg width="27" height="26" viewBox="0 0 27 26" fill="none" xmlns="http://www.w3.org/2000/svg">
<path d="M13.5786 0.357422C6.50788 0.357733 0.77616 6.08987 0.776367 13.1606C0.776575 20.2313 6.50863 25.9631 13.5793 25.963C20.65 25.9629 26.3819 20.2309 26.3819 13.1602C26.381 6.08959 20.6492 0.358044 13.5786 0.357422ZM19.422 10.3396C19.4276 10.4658 19.4304 10.5924 19.4304 10.7193C19.4459 12.9411 18.5703 15.0764 16.9994 16.6478C15.4286 18.2191 13.2936 19.0955 11.0718 19.0808C9.47397 19.0828 7.9094 18.6246 6.56514 17.7609C6.79773 17.7881 7.03173 17.8017 7.26592 17.8015C8.58921 17.8036 9.87474 17.3605 10.9157 16.5436C9.65854 16.5198 8.55542 15.6997 8.17062 14.5026C8.61103 14.5877 9.0651 14.5706 9.49783 14.4525C8.12702 14.1751 7.14151 12.9702 7.14142 11.5716C7.14142 11.5581 7.14142 11.5463 7.14142 11.5339C7.54937 11.761 8.00586 11.887 8.47257 11.9012C7.18122 11.0387 6.78285 9.32093 7.56279 7.97814C9.05505 9.8142 11.2567 10.9304 13.6197 11.0488C13.3172 9.75323 13.9224 8.41593 15.0955 7.78816C16.2685 7.1604 17.717 7.39865 18.6271 8.36909C19.2849 8.239 19.9157 7.99763 20.4923 7.65535C20.2727 8.33578 19.8135 8.91331 19.2 9.28055C19.7834 9.21179 20.3531 9.0557 20.89 8.8175C20.496 9.40747 20.0001 9.92252 19.4254 10.3385L19.422 10.3396Z" fill="#F16521"/>
</svg>
