<svg width="27" height="26" viewBox="0 0 27 26" fill="none" xmlns="http://www.w3.org/2000/svg">
<path fill-rule="evenodd" clip-rule="evenodd" d="M26.1207 12.834C26.1207 19.9048 20.3887 25.6368 13.3179 25.6368C6.24714 25.6368 0.515137 19.9048 0.515137 12.834C0.515137 5.76325 6.24714 0.03125 13.3179 0.03125C20.3887 0.03125 26.1207 5.76325 26.1207 12.834ZM10.2822 7.19289C9.02334 7.19289 8.00287 8.21336 8.00287 9.47217V15.7766C8.00287 17.0354 9.02334 18.0559 10.2822 18.0559H16.5866C17.8454 18.0559 18.8658 17.0354 18.8658 15.7766V9.47217C18.8658 8.21336 17.8454 7.19289 16.5866 7.19289H10.2822ZM6.25704 9.47217C6.25704 7.24916 8.05914 5.44705 10.2822 5.44705H16.5866C18.8096 5.44705 20.6117 7.24916 20.6117 9.47217V15.7766C20.6117 17.9996 18.8096 19.8017 16.5866 19.8017H10.2822C8.05914 19.8017 6.25704 17.9996 6.25704 15.7766V9.47217ZM12.7022 11.1335C13.0101 10.9738 13.3604 10.9152 13.7035 10.9661C14.0534 11.018 14.3774 11.181 14.6275 11.4312C14.8777 11.6813 15.0408 12.0053 15.0926 12.3552C15.1435 12.6983 15.0849 13.0487 14.9252 13.3565C14.7655 13.6643 14.5127 13.914 14.2029 14.0699C13.8932 14.2258 13.5421 14.2801 13.1997 14.225C12.8573 14.1699 12.541 14.0082 12.2957 13.763C12.0505 13.5178 11.8888 13.2015 11.8337 12.859C11.7786 12.5166 11.8329 12.1656 11.9888 11.8558C12.1448 11.546 12.3944 11.2933 12.7022 11.1335ZM13.9596 9.23914C13.2533 9.1344 12.5319 9.25504 11.8981 9.5839C11.2644 9.91276 10.7504 10.4331 10.4294 11.0709C10.1084 11.7087 9.99664 12.4314 10.1101 13.1364C10.2235 13.8414 10.5563 14.4926 11.0612 14.9975C11.5661 15.5024 12.2174 15.8352 12.9223 15.9487C13.6273 16.0621 14.3501 15.9504 14.9878 15.6293C15.6256 15.3083 16.146 14.7944 16.4748 14.1606C16.8037 13.5268 16.9243 12.8055 16.8196 12.0992C16.7128 11.3787 16.377 10.7117 15.862 10.1967C15.347 9.68169 14.68 9.34597 13.9596 9.23914Z" fill="#F16521"/>
</svg>
