<svg width="28" height="27" viewBox="0 0 28 27" fill="none" xmlns="http://www.w3.org/2000/svg">
<g clip-path="url(#clip0)">
<path d="M14.0023 26.6413C21.3504 26.6413 27.3073 20.6844 27.3073 13.3363C27.3073 5.9881 21.3504 0.03125 14.0023 0.03125C6.65412 0.03125 0.697266 5.9881 0.697266 13.3363C0.697266 20.6844 6.65412 26.6413 14.0023 26.6413Z" fill="#F16521"/>
<path d="M19.7479 14.6899V19.038H17.0652V14.979C17.0652 13.9585 16.6784 13.265 15.7077 13.265C14.9653 13.265 14.5274 13.7346 14.3319 14.1865C14.2615 14.3492 14.2402 14.5771 14.2402 14.8021V19.0375H11.5601C11.5601 19.0375 11.5961 12.1656 11.5601 11.4539H14.2407V12.5288C14.2371 12.5376 14.2293 12.5449 14.2256 12.5547H14.2407V12.5288C14.5988 12.0121 15.2333 11.2759 16.658 11.2759C18.4263 11.2759 19.7479 12.3597 19.7479 14.6899ZM8.75386 7.79736C7.83688 7.79736 7.23633 8.363 7.23633 9.10902C7.23633 9.83494 7.81917 10.4197 8.71945 10.4197H8.73562C9.67293 10.4197 10.2537 9.83494 10.2537 9.10902C10.2354 8.363 9.67296 7.79736 8.75386 7.79736ZM7.39638 19.038H10.0775V11.4534H7.39638V19.038Z" fill="white"/>
</g>
<defs>
<clipPath id="clip0">
<rect width="26.61" height="26.61" fill="white" transform="translate(0.697266 0.03125)"/>
</clipPath>
</defs>
</svg>
