<svg width="202" height="66" viewBox="0 0 202 66" fill="none" xmlns="http://www.w3.org/2000/svg">
<g clip-path="url(#clip0)">
<path d="M189.616 1.78369H13.0215C6.81504 1.78369 1.78369 6.81504 1.78369 13.0215V53.1567C1.78369 59.3631 6.81504 64.3945 13.0215 64.3945H189.616C195.823 64.3945 200.854 59.3631 200.854 53.1567V13.0215C200.854 6.81504 195.823 1.78369 189.616 1.78369Z" fill="#F9F9F9" stroke="#D2D7E1" stroke-width="0.891892"/>
<path d="M31.3231 39.9031C31.3231 40.7468 31.869 41.3093 32.6877 41.3093H34.0523V46.2309C34.0523 47.3559 35.0075 48.3402 36.0992 48.3402C37.1909 48.3402 38.1461 47.3559 38.1461 46.2309V41.3093H40.8753V46.2309C40.8753 47.3559 41.8305 48.3402 42.9222 48.3402C44.0139 48.3402 44.9691 47.3559 44.9691 46.2309V41.3093H46.3337C47.1524 41.3093 47.6983 40.7468 47.6983 39.9031V25.8411H31.3231V39.9031ZM27.9116 25.8411C26.82 25.8411 25.8647 26.8255 25.8647 27.9504V37.7938C25.8647 38.9187 26.82 39.9031 27.9116 39.9031C29.0033 39.9031 29.9585 38.9187 29.9585 37.7938V27.9504C29.9585 26.8255 29.0033 25.8411 27.9116 25.8411ZM51.1097 25.8411C50.0181 25.8411 49.0629 26.8255 49.0629 27.9504V37.7938C49.0629 38.9187 50.0181 39.9031 51.1097 39.9031C52.2014 39.9031 53.1566 38.9187 53.1566 37.7938V27.9504C53.1566 26.8255 52.2014 25.8411 51.1097 25.8411ZM44.2868 17.6852L46.0607 15.8572C46.3337 15.5759 46.3337 15.1541 46.0607 14.8728C45.7878 14.5916 45.3785 14.5916 45.1055 14.8728L43.0586 16.9821C42.1034 16.279 40.8752 15.9977 39.5106 15.9977C38.146 15.9977 36.9179 16.279 35.8262 16.8415L33.9158 14.7322C33.6429 14.5916 33.097 14.5916 32.8241 14.7322C32.6877 15.0135 32.6877 15.5759 32.8241 15.8571L34.5981 17.6852C32.6877 19.232 31.3231 21.6225 31.3231 24.4348H47.6982C47.6982 21.6226 46.3337 19.0914 44.2868 17.6852ZM36.7815 21.6226H35.4169V20.2164H36.7815V21.6226ZM43.6045 21.6226H42.2399V20.2164H43.6045V21.6226Z" fill="black"/>
<path d="M73.2982 17.2008C70.4663 17.2008 68.299 19.3392 68.299 22.359C68.299 25.3932 70.4663 27.5172 73.2982 27.5172C76.0579 27.5172 78.0518 25.4654 78.2108 22.7924V22.0556H72.8937V22.8791H77.1416C76.9826 25.1765 75.4222 26.6069 73.2982 26.6069C71.0587 26.6069 69.3393 24.9742 69.3393 22.359C69.3393 19.7438 71.0587 18.1255 73.2982 18.1255C74.9165 18.1255 76.1446 18.9636 76.7081 20.2639H77.8929C77.1705 18.3423 75.4655 17.2008 73.2982 17.2008ZM83.43 20.2784C84.8893 20.2784 86.2186 21.2031 86.1753 23.0381H80.627C80.7426 21.2031 81.9996 20.2784 83.43 20.2784ZM87.0855 24.9164H86.0163C85.7273 25.9712 84.8171 26.6791 83.4734 26.6791C81.9996 26.6791 80.7137 25.7111 80.627 23.8616H87.1722C87.2011 23.5871 87.2011 23.3848 87.2011 23.067C87.2011 21.0586 85.7851 19.4115 83.4734 19.4115C81.2049 19.4115 79.6011 20.9575 79.6011 23.4715C79.6011 25.9712 81.2338 27.5316 83.4734 27.5316C85.4528 27.5316 86.7243 26.4046 87.0855 24.9164ZM89.3405 25.2776C89.3405 26.8525 90.0774 27.416 91.45 27.416H92.5337V26.5491H91.609C90.6987 26.5491 90.3664 26.2457 90.3664 25.2776V20.3795H92.5337V19.5271H90.3664V17.5476H89.3405V19.5271H88.2424V20.3795H89.3405V25.2776ZM105.593 23.4715C105.593 20.9575 103.874 19.4115 101.649 19.4115C99.4381 19.4115 97.7043 20.9575 97.7043 23.4715C97.7043 25.9712 99.3948 27.5316 101.62 27.5316C103.845 27.5316 105.593 25.9712 105.593 23.4715ZM98.7301 23.4715C98.7301 21.3042 100.132 20.2928 101.634 20.2928C103.137 20.2928 104.553 21.3042 104.553 23.4715C104.553 25.6388 103.108 26.6502 101.62 26.6502C100.117 26.6502 98.7301 25.6388 98.7301 23.4715ZM113.346 27.416H114.343V22.7924C114.343 20.4807 112.927 19.3826 111.136 19.3826C109.965 19.3826 108.954 19.8883 108.448 20.8708V19.5271H107.437V27.416H108.448V23.1103C108.448 21.1886 109.474 20.2639 110.948 20.2639C112.393 20.2639 113.346 21.1598 113.346 22.908V27.416ZM120.834 25.2776C120.834 26.8525 121.571 27.416 122.944 27.416H124.027V26.5491H123.103C122.192 26.5491 121.86 26.2457 121.86 25.2776V20.3795H124.027V19.5271H121.86V17.5476H120.834V19.5271H119.736V20.3795H120.834V25.2776ZM125.695 27.416H126.707V23.1103C126.707 21.1886 127.733 20.2639 129.206 20.2639C130.651 20.2639 131.605 21.1598 131.605 22.908V27.416H132.602V22.7924C132.602 20.4807 131.2 19.3826 129.452 19.3826C128.253 19.3826 127.212 19.9027 126.707 20.8708V16.724H125.695V27.416ZM138.205 20.2784C139.664 20.2784 140.994 21.2031 140.95 23.0381H135.402C135.518 21.2031 136.775 20.2784 138.205 20.2784ZM141.861 24.9164H140.791C140.502 25.9712 139.592 26.6791 138.248 26.6791C136.775 26.6791 135.489 25.7111 135.402 23.8616H141.947C141.976 23.5871 141.976 23.3848 141.976 23.067C141.976 21.0586 140.56 19.4115 138.248 19.4115C135.98 19.4115 134.376 20.9575 134.376 23.4715C134.376 25.9712 136.009 27.5316 138.248 27.5316C140.228 27.5316 141.499 26.4046 141.861 24.9164Z" fill="#797979"/>
<path d="M75.138 33.6012C71.2465 33.6012 68.2797 36.4524 68.2797 40.4787C68.2797 44.5051 71.2465 47.337 75.1573 47.337C78.7406 47.337 81.1872 44.8326 81.7266 42.097V39.7467H74.4445V41.808H79.0681C78.6635 43.7152 77.3342 44.9097 75.2536 44.9097C72.7492 44.9097 71.0539 43.2143 71.0539 40.4787C71.0539 37.8009 72.7299 36.0863 75.138 36.0863C76.5636 36.0863 77.681 36.6836 78.2975 37.8202H81.3991C80.5322 35.1231 78.1434 33.6012 75.138 33.6012ZM94.0287 41.8851C94.0287 38.5137 91.6206 36.3753 88.5383 36.3753C85.4559 36.3753 83.0478 38.5137 83.0478 41.8851C83.0478 45.2372 85.3788 47.3948 88.4612 47.3948C91.5628 47.3948 94.0287 45.2372 94.0287 41.8851ZM85.7834 41.8851C85.7834 39.7467 87.0741 38.7256 88.4997 38.7256C89.9253 38.7256 91.2546 39.7467 91.2546 41.8851C91.2546 44.0042 89.8868 45.0445 88.4612 45.0445C87.0163 45.0445 85.7834 44.0042 85.7834 41.8851ZM106.314 41.8851C106.314 38.5137 103.906 36.3753 100.823 36.3753C97.741 36.3753 95.3329 38.5137 95.3329 41.8851C95.3329 45.2372 97.6639 47.3948 100.746 47.3948C103.848 47.3948 106.314 45.2372 106.314 41.8851ZM98.0685 41.8851C98.0685 39.7467 99.3592 38.7256 100.785 38.7256C102.21 38.7256 103.54 39.7467 103.54 41.8851C103.54 44.0042 102.172 45.0445 100.746 45.0445C99.3014 45.0445 98.0685 44.0042 98.0685 41.8851ZM107.599 41.8465C107.599 45.1794 109.756 47.3948 112.473 47.3948C114.149 47.3948 115.362 46.5664 115.998 45.6417V47.2985C115.998 49.2828 114.842 50.1304 113.359 50.1304C112.01 50.1304 111.009 49.4947 110.739 48.5314H108.061C108.331 50.9781 110.431 52.4807 113.436 52.4807C116.942 52.4807 118.715 50.1882 118.715 47.2985V36.5487H115.998V38.0706C115.362 37.1459 114.149 36.3753 112.473 36.3753C109.756 36.3753 107.599 38.5137 107.599 41.8465ZM115.998 41.8851C115.998 43.9079 114.65 45.0252 113.166 45.0252C111.721 45.0252 110.354 43.8693 110.354 41.8465C110.354 39.8237 111.721 38.7449 113.166 38.7449C114.65 38.7449 115.998 39.8623 115.998 41.8851ZM121.349 47.2214H124.046V32.9654H121.349V47.2214ZM131.296 38.5908C132.683 38.5908 133.8 39.477 133.839 40.8833H128.772C128.984 39.4192 130.005 38.5908 131.296 38.5908ZM136.362 43.8693H133.453C133.106 44.5821 132.471 45.1601 131.315 45.1601C129.966 45.1601 128.887 44.2739 128.753 42.6942H136.555C136.613 42.3474 136.632 42.0007 136.632 41.6539C136.632 38.4752 134.455 36.3753 131.373 36.3753C128.213 36.3753 126.017 38.5137 126.017 41.8851C126.017 45.2372 128.271 47.3948 131.373 47.3948C134.012 47.3948 135.784 45.8344 136.362 43.8693ZM145.888 39.8815V35.9708H148.026C149.548 35.9708 150.223 36.7028 150.223 37.9358C150.223 39.1302 149.548 39.8815 148.026 39.8815H145.888ZM152.997 37.9358C152.997 35.6047 151.379 33.7746 148.142 33.7746H143.191V47.2214H145.888V42.0585H148.142C151.61 42.0585 152.997 39.9778 152.997 37.9358ZM154.912 47.2214H157.609V32.9654H154.912V47.2214ZM159.58 41.8465C159.58 45.1794 161.738 47.3948 164.435 47.3948C166.13 47.3948 167.344 46.5857 167.979 45.661V47.2214H170.696V36.5487H167.979V38.0706C167.344 37.1844 166.169 36.3753 164.454 36.3753C161.738 36.3753 159.58 38.5137 159.58 41.8465ZM167.979 41.8851C167.979 43.9079 166.631 45.0252 165.148 45.0252C163.703 45.0252 162.335 43.8693 162.335 41.8465C162.335 39.8237 163.703 38.7449 165.148 38.7449C166.631 38.7449 167.979 39.8623 167.979 41.8851ZM177.877 44.0042L175.122 36.5487H172.097L176.374 46.9517L174.062 52.2688H176.933L183.54 36.5487H180.67L177.877 44.0042Z" fill="black"/>
</g>
<defs>
<clipPath id="clip0">
<rect width="201.568" height="66" fill="white" transform="translate(0 0.000732422)"/>
</clipPath>
</defs>
</svg>
