<svg width="35" height="33" viewBox="0 0 35 33" fill="none" xmlns="http://www.w3.org/2000/svg">
<path d="M4.5489 30.4075C4.31151 30.3924 4.07339 30.3766 3.83528 30.3601C2.37303 30.2593 1.1839 29.1332 1.01237 27.6772C0.282988 21.4707 0.282988 15.2636 1.01237 9.05714C1.1839 7.60109 2.37303 6.47505 3.83528 6.37491C4.07267 6.35843 4.31012 6.34267 4.54751 6.32758C3.63836 6.79418 2.98374 7.68896 2.85816 8.75594C2.10544 15.1634 2.10544 21.5709 2.85816 27.9784C2.98374 29.0454 3.63902 29.9409 4.5489 30.4075Z" fill="#F16521"/>
<path fill-rule="evenodd" clip-rule="evenodd" d="M11.6378 0.329857L16.4436 5.91409C17.092 5.91113 17.7404 5.91138 18.3888 5.91482L23.1951 0.329857C23.3787 0.11666 23.7003 0.0925322 23.9134 0.275997C24.1266 0.459463 24.1508 0.781103 23.9672 0.9943L19.7227 5.92643C23.4312 5.97124 27.1398 6.12076 30.8483 6.37497C32.311 6.47524 33.5 7.60122 33.671 9.05733C34.4005 15.2642 34.4005 21.471 33.671 27.6778C33.4998 29.1339 32.3109 30.2599 30.8482 30.3602C30.2387 30.402 29.6293 30.4409 29.0198 30.477C29.0177 30.5002 29.014 30.5235 29.0086 30.5469L28.6554 32.0661C28.6007 32.3014 28.3913 32.4602 28.1598 32.4602C28.1216 32.4602 28.0828 32.456 28.0439 32.4469C27.77 32.3832 27.5995 32.1095 27.6631 31.8355L27.965 30.5367C20.8824 30.9186 13.7998 30.9186 6.71716 30.5367L7.01912 31.8355C7.08281 32.1095 6.91233 32.3832 6.63835 32.4469C6.59959 32.456 6.56076 32.4602 6.52259 32.4602C6.29106 32.4602 6.08156 32.3014 6.02691 32.0662L5.67369 30.5469C5.66826 30.5235 5.66454 30.5002 5.66243 30.477C5.05337 30.4409 4.44431 30.4019 3.83524 30.3602C2.3726 30.2599 1.1836 29.1339 1.01246 27.6778C0.282955 21.471 0.282955 15.2642 1.01246 9.05733C1.18367 7.60122 2.3726 6.47524 3.83531 6.37497C7.59312 6.11738 11.3509 5.96728 15.1088 5.92469L10.8657 0.9943C10.6822 0.781103 10.7063 0.459463 10.9195 0.275997C11.1327 0.0924663 11.4543 0.116594 11.6378 0.329857ZM5.40587 8.81797C13.3636 8.2687 21.3215 8.2687 29.2792 8.81797C30.14 8.87737 30.8429 9.53449 30.9557 10.3899C31.6573 15.7088 31.6573 21.0276 30.9557 26.3464C30.8429 27.2019 30.14 27.859 29.2792 27.9184C21.3215 28.4677 13.3636 28.4677 5.40587 27.9184C4.54504 27.859 3.84223 27.2019 3.72937 26.3464C3.02775 21.0276 3.02775 15.7088 3.72937 10.3899C3.84216 9.53443 4.54504 8.87737 5.40587 8.81797Z" fill="#F16521"/>
</svg>
