<svg width="30" height="30" viewBox="0 0 30 30" fill="none" xmlns="http://www.w3.org/2000/svg">
<g clip-path="url(#clip0)">
<path d="M25.8166 27.4372H24.6042V22.8572V17.8729V13.0234C24.6042 12.4172 24.0654 11.8784 23.4592 11.8784H21.1017C20.5629 9.38625 18.4075 7.50032 15.646 7.02884V6.15323H19.4852C20.0914 6.15323 20.6303 5.68174 20.6303 5.0082V2.51607C20.6303 1.90988 20.0914 1.37104 19.4852 1.37104H15.5787C15.444 0.966916 15.0398 0.630142 14.501 0.630142C13.8948 0.630142 13.3559 1.16898 13.3559 1.77517V7.02884C10.5944 7.43296 8.37168 9.38625 7.9002 11.8784H5.54278C4.93659 11.8784 4.39775 12.4172 4.39775 13.0234V17.8729V22.8572V27.4372H3.32008C2.71389 27.4372 2.17505 27.9087 2.17505 28.5823C2.17505 29.2559 2.71389 29.7274 3.32008 29.7274H25.8839C26.4901 29.7274 27.029 29.1885 27.029 28.5823C27.029 27.9761 26.4901 27.4372 25.8166 27.4372ZM12.7498 14.1684H16.3869V16.7279H12.7498V14.1684ZM12.7498 24.0022H16.3869V26.5617H12.7498V24.0022ZM18.6096 24.0022H22.3141V26.5617H18.6096V24.0022ZM22.3815 21.7121H18.6096V18.9506H22.3141V21.7121H22.3815ZM16.3869 18.9506V21.7122H12.7497V18.9506H16.3869ZM10.5271 21.7121H6.82258V18.9506H10.5271V21.7121ZM6.75522 24.0022H10.5271V26.5617H6.82258V24.0022H6.75522ZM22.3815 16.7279H18.6096V14.1684H22.3141V16.7279H22.3815ZM6.75522 14.1684H10.5271V16.7279H6.82258V14.1684H6.75522Z" fill="#F16521"/>
</g>
<defs>
<clipPath id="clip0">
<rect width="29.0972" height="29.0972" fill="white" transform="translate(0.0534668 0.630043)"/>
</clipPath>
</defs>
</svg>
