<svg width="26" height="27" viewBox="0 0 26 27" fill="none" xmlns="http://www.w3.org/2000/svg">
<g clip-path="url(#clip0)">
<path d="M9.45176 19.0366H9.07308C8.71891 19.0366 8.39404 18.8149 8.28847 18.4769C8.16065 18.0674 8.37464 17.6393 8.76462 17.4898L14.7667 15.1813C15.1882 15.0192 15.3906 14.5413 15.2167 14.1244C12.849 8.45002 12.2565 1.45078 12.2498 1.36846C12.1889 0.615608 11.2078 0.358155 10.7865 0.988885L9.6298 2.72374L7.89544 1.5675C7.4364 1.26109 6.80927 1.50184 6.67519 2.0391L6.15008 4.13803L4.69479 3.16783C4.23574 2.86142 3.60861 3.10217 3.47454 3.63943L2.94943 5.73836L1.49413 4.76816C0.939715 4.39854 0.200163 4.83137 0.252374 5.49581C0.268377 5.70335 0.663959 10.6399 2.16477 15.6649C3.05895 18.658 4.16418 21.0545 5.44944 22.7889C6.35133 24.0047 7.73371 24.6377 9.13029 24.6377H9.4093C10.9462 24.6377 12.2287 23.4172 12.252 21.8805C12.2758 20.3164 11.0105 19.0366 9.45176 19.0366ZM4.30771 10.5318C4.14367 10.1218 4.34321 9.65616 4.7538 9.49163L8.75462 7.8913C9.1647 7.72727 9.6303 7.92681 9.79483 8.33739C9.95886 8.74748 9.75932 9.21307 9.34874 9.37761C5.01605 11.1107 5.27175 11.0349 5.05086 11.0349C4.73379 11.0349 4.43323 10.8449 4.30771 10.5318ZM6.14808 14.1786C5.74375 14.3403 5.2743 14.1476 5.10787 13.7325C4.94384 13.3224 5.14338 12.8568 5.55396 12.6923L9.55478 11.092C9.96487 10.9279 10.4305 11.1275 10.595 11.5381C10.759 11.9481 10.5595 12.4137 10.1489 12.5783L6.14808 14.1786ZM21.8543 14.2356C21.6453 14.2356 22.0586 14.1001 16.2737 16.325C16.2666 16.3133 12.4035 17.8048 12.41 17.8022C12.1255 17.9117 12.0645 18.2847 12.2969 18.482C14.7317 20.5497 14.226 24.4302 11.3455 25.8092C11.1305 25.9122 11.2026 26.2377 11.441 26.2381C12.1055 26.2392 12.7431 26.077 13.3006 25.786L21.9288 22.2332C22.0929 22.2182 22.2429 22.1537 22.3629 22.0547C24.7013 21.0923 24.5915 21.1631 24.7504 20.997C27.1676 18.4627 25.3567 14.2356 21.8543 14.2356Z" fill="#F16521"/>
<path d="M22.3636 9.18848H21.7062V9.67206H22.3636V10.0983H21.7062V12.2703H21.1385L19.5473 10.0983H17.8963V12.2703H17.224V10.0983H16.5442V9.67206H17.224V9.18848H16.5442V8.76226H17.224V6.45088H17.7469L19.4203 8.76226H21.0339V6.45907H21.7062V8.76226H22.3636V9.18848ZM17.8963 9.67206H19.241L18.8899 9.18848H17.8963V9.67206ZM20.0852 9.67206H21.0339V9.18848H19.7341L20.0852 9.67206ZM17.8963 8.76226H18.5761L17.8963 7.82787V8.76226ZM21.0339 10.9835V10.0983H20.3914L21.0339 10.9835Z" fill="#F16521" stroke="#F16521" stroke-width="0.232778"/>
</g>
<defs>
<clipPath id="clip0">
<rect width="25.6056" height="25.6056" fill="white" transform="translate(0.249756 0.631474)"/>
</clipPath>
</defs>
</svg>
