<svg width="38" height="39" viewBox="0 0 38 39" fill="none" xmlns="http://www.w3.org/2000/svg">
<path fill-rule="evenodd" clip-rule="evenodd" d="M25.0645 32.8906C25.0645 31.4181 27.7307 26.5753 27.7307 26.5753C27.7307 26.5753 30.3968 31.4181 30.3968 32.8906C30.3968 34.3631 29.2031 35.5568 27.7307 35.5568C26.2582 35.5568 25.0645 34.3631 25.0645 32.8906ZM26.0981 32.186C26.2908 31.4684 26.696 30.502 27.1289 29.5722H26.8429C26.41 30.502 26.0048 31.4684 25.812 32.186H26.0981ZM25.6943 32.9111C25.6992 33.5325 25.9171 34.1016 26.278 34.5519H26.565C26.2035 34.1019 25.9853 33.533 25.9804 32.9111H25.6943Z" fill="#F16521"/>
<path d="M17.9617 4.06046H19.4692V10.4853H17.9617V4.06046Z" fill="#F16521"/>
<path d="M20.7033 8.93709H16.7075C16.3887 8.93709 16.1304 9.19545 16.1304 9.51417V14.4196H21.2804V9.51417C21.2804 9.19545 21.022 8.93709 20.7033 8.93709Z" fill="#F16521"/>
<path d="M22.4324 16.7179V15.3487H15.0927C15.1205 15.3626 15.1816 16.1356 15.0822 17.1747C14.9601 18.456 13.0702 18.1823 13.0702 18.1823L12.7233 17.6628C12.6379 17.5338 12.5124 17.4396 12.3676 17.3943C12.2997 17.37 12.2282 17.3577 12.1549 17.3577H9.04295C8.66987 17.3577 8.36649 17.6558 8.35953 18.0272L8.234 24.1327C8.227 24.5163 8.53561 24.83 8.91742 24.83H12.338C12.3887 24.83 12.398 24.83 12.7641 24.6322C12.8361 24.5933 12.9002 24.5386 12.9428 24.4686C13.1093 24.1951 13.1139 24.0089 13.1139 24.0089C13.7537 23.8258 15.4187 24.3419 15.4187 24.3419C18.9782 25.1587 20.8541 24.1108 21.4372 23.6844C21.6303 23.5432 21.8414 23.4285 22.0685 23.3534C22.6084 23.1747 23.0659 23.1395 23.4487 23.1876C24.3995 23.3073 25.0859 24.1646 25.0859 25.1229C25.0859 25.4667 25.3646 25.7453 25.7083 25.7453H29.4341C29.7778 25.7453 30.0565 25.4666 30.0565 25.1229V24.4343C29.1534 19.0052 22.4324 16.7179 22.4324 16.7179Z" fill="#F16521"/>
<path d="M15.0828 15.9857H15.0924C15.0867 15.9823 15.0828 15.9857 15.0828 15.9857Z" fill="#FEDA6F"/>
<path d="M22.4442 13.5374H14.9673C14.8109 13.5374 14.6841 13.6642 14.6841 13.8206V15.7008C14.6841 15.8572 14.8109 15.9839 14.9673 15.9839H22.4442C22.6006 15.9839 22.7274 15.8572 22.7274 15.7008V13.8206C22.7274 13.6642 22.6006 13.5374 22.4442 13.5374Z" fill="#F16521"/>
<path d="M22.5648 6.24053H14.8661C14.1377 6.24053 13.5471 5.65 13.5471 4.92154V4.92154C13.5471 4.19308 14.1377 3.60255 14.8661 3.60255H22.5648C23.2932 3.60255 23.8837 4.19308 23.8837 4.92154V4.92154C23.8837 5.65 23.2932 6.24053 22.5648 6.24053Z" fill="#F16521"/>
<path d="M13.1141 24.0088C13.1141 24.0088 13.1089 24.2249 12.9014 24.5335C12.7794 24.7113 12.5824 24.8194 12.3679 24.8282V17.3942C12.5126 17.4395 12.6382 17.5336 12.7236 17.6627L13.0705 18.1822V18.2903L13.1141 24.0088Z" fill="#F16521"/>
<path opacity="0.5" d="M27.8948 22.5764H28.7366C26.0569 18.4242 22.5002 17.8314 22.3376 17.8065L22.2324 18.496C22.2677 18.5013 25.4067 19.0246 27.8948 22.5764Z" fill="white"/>
</svg>
