<svg width="29" height="29" viewBox="0 0 29 29" fill="none" xmlns="http://www.w3.org/2000/svg">
<path fill-rule="evenodd" clip-rule="evenodd" d="M23.5292 6.33632H7.38029C6.17697 6.33632 5.198 5.35735 5.198 4.15403C5.198 2.95072 6.17697 1.97174 7.38029 1.97174H21.7834V2.84466H7.38029C6.65839 2.84466 6.07091 3.43213 6.07091 4.15403C6.07091 4.87593 6.65839 5.46341 7.38029 5.46341H23.5292V6.33632ZM6.94387 4.15393C6.94387 4.39486 7.13984 4.59039 7.38033 4.59039H22.6564V3.71748H7.38033C7.13984 3.71748 6.94387 3.91301 6.94387 4.15393ZM14.8958 9.82789H14.7046L14.05 12.4466H15.5505L14.8958 9.82789ZM19.6012 16.8112H9.99908C9.27718 16.8112 8.68971 17.3987 8.68971 18.1206V23.3581C8.68971 24.08 9.27718 24.6675 9.99908 24.6675H19.6012C20.3231 24.6675 20.9105 24.08 20.9105 23.3581V18.1206C20.9105 17.3987 20.3231 16.8112 19.6012 16.8112ZM13.0543 18.1206C13.5357 18.1206 13.9272 18.5121 13.9272 18.9935C13.9272 19.4749 13.5357 19.8664 13.0543 19.8664C12.5729 19.8664 12.1814 19.4749 12.1814 18.9935C12.1814 18.5121 12.5729 18.1206 13.0543 18.1206ZM11.8728 23.0495L17.1103 17.812L17.7274 18.4292L12.4899 23.6667L11.8728 23.0495ZM16.546 23.3581C16.0645 23.3581 15.673 22.9666 15.673 22.4852C15.673 22.0038 16.0645 21.6123 16.546 21.6123C17.0274 21.6123 17.4189 22.0038 17.4189 22.4852C17.4189 22.9666 17.0274 23.3581 16.546 23.3581ZM5.19804 6.29076C5.75278 6.85729 6.52618 7.20951 7.38033 7.20951H24.4022V27.2866H7.38033C6.17701 27.2866 5.19804 26.3076 5.19804 25.1043V6.29076ZM14.0228 8.95534L13.0674 12.7778L13.0543 14.1928H13.9272V13.3199H15.673V14.1928H16.546V12.8835L15.5775 8.95534H14.0228ZM12.1814 8.95534H7.81679V9.82826H9.56262V14.1928H10.4355V9.82826H12.1814V8.95534ZM19.6012 25.5408C20.8045 25.5408 21.7835 24.5618 21.7835 23.3585V18.121C21.7835 16.9176 20.8045 15.9387 19.6012 15.9387H9.99908C8.79576 15.9387 7.81679 16.9176 7.81679 18.121V23.3585C7.81679 24.5618 8.79576 25.5408 9.99908 25.5408H19.6012ZM20.5832 11.5741L21.7835 9.9736V8.95534H20.9105V9.68292L20.0376 10.8469L19.1647 9.68292V8.95534H18.2918V9.9736L19.492 11.5741L18.2918 13.1746V14.1928H19.1647V13.4653L20.0376 12.3012L20.9105 13.4653V14.1928H21.7835V13.1746L20.5832 11.5741Z" fill="#F16521"/>
</svg>
