<svg width="118" height="33" viewBox="0 0 118 33" fill="none" xmlns="http://www.w3.org/2000/svg">
<path fill-rule="evenodd" clip-rule="evenodd" d="M106.776 28.1107C103.285 28.3857 100.385 26.0689 100.385 22.025C100.385 17.9854 103.279 15.7146 106.765 15.9788C113.981 16.5251 113.99 27.5428 106.776 28.1107ZM117.903 12.8942H117.901V12.4711C117.901 12.2477 117.719 12.0666 117.494 12.0666H113.304C113.079 12.0666 112.897 12.2477 112.897 12.4711V12.8797L112.899 12.8818H112.897V12.9811C112.876 13.1786 112.643 13.2411 112.503 13.1006C111.683 12.2784 108.971 11.5176 106.499 11.5176C100.592 11.4768 95.957 15.101 95.957 22.023C95.957 29.0671 100.387 32.7316 106.376 32.6915C108.607 32.6509 111.167 32.3744 112.897 30.0851V32.3552C112.897 32.5784 113.079 32.7595 113.304 32.7595H117.494C117.719 32.7595 117.901 32.5784 117.901 32.3552V31.5838L117.903 30.8968V12.8942Z" fill="#F16521"/>
<path fill-rule="evenodd" clip-rule="evenodd" d="M21.0303 23.8145C21.3584 26.2983 23.5327 28.0902 27.0603 28.0902C28.9063 28.0902 31.3265 27.3976 32.4751 26.2172L35.6748 29.3522C33.5418 31.551 30.0548 32.6097 26.9781 32.6097C20.0045 32.6097 15.8613 28.3342 15.8613 21.9007C15.8613 15.7931 20.0457 11.3956 26.6091 11.3956C33.3778 11.3956 37.6027 15.5489 36.8235 23.8145H21.0303ZM32.0248 19.6968C31.6968 17.091 29.6458 15.788 26.7741 15.788C24.0667 15.788 21.8514 17.091 21.1131 19.6968H32.0248Z" fill="#F16521"/>
<mask id="mask0" mask-type="alpha" maskUnits="userSpaceOnUse" x="0" y="12" width="17" height="21">
<path fill-rule="evenodd" clip-rule="evenodd" d="M8.78579 32.7706H0.827637V12.1671H16.744V32.7706H8.78579Z" fill="white"/>
</mask>
<g mask="url(#mask0)">
<path fill-rule="evenodd" clip-rule="evenodd" d="M11.5344 12.1671C9.4836 12.1671 7.39097 12.5337 5.83249 15.0175V13.054C5.83249 12.8307 5.65004 12.6497 5.42493 12.6497H1.23537C1.01026 12.6497 0.827637 12.8307 0.827637 13.054V14.2489V14.9943V15.6555V17.6053V28.7627V29.8113L0.832434 29.8166L0.827637 29.8193V31.2907V32.3659C0.827637 32.5894 1.01026 32.7706 1.23537 32.7706H5.42493C5.65004 32.7706 5.83249 32.5894 5.83249 32.3659V30.2717C5.83249 30.1702 5.84432 30.074 5.83249 29.9761V26.8604V22.1837C5.83249 18.4788 8.25252 17.0941 10.878 17.0941C12.5187 17.0941 13.4623 17.5419 14.4881 18.3969L16.744 14.0809C15.6366 12.9815 13.6262 12.1671 11.5344 12.1671Z" fill="#F16521"/>
</g>
<mask id="mask1" mask-type="alpha" maskUnits="userSpaceOnUse" x="73" y="12" width="6" height="21">
<path fill-rule="evenodd" clip-rule="evenodd" d="M73.574 32.7725H78.5824V12.6172H73.574L73.574 32.7725H73.574Z" fill="white"/>
</mask>
<g mask="url(#mask1)">
<path fill-rule="evenodd" clip-rule="evenodd" d="M78.5824 30.2438V22.0231H78.5805V13.0215C78.5805 12.7982 78.3981 12.6172 78.1728 12.6172H73.9834C73.7583 12.6172 73.5755 12.7982 73.5755 13.0215V26.4498C73.5755 26.4569 73.5776 26.4636 73.5779 26.4706V29.8133L73.5846 29.8213H73.5755V30.2507C73.575 30.2624 73.574 30.2746 73.574 30.2868C73.574 30.2988 73.575 30.3108 73.5755 30.3229V32.3679C73.5755 32.5914 73.7583 32.7726 73.9834 32.7726H78.1728C78.3981 32.7726 78.5805 32.5914 78.5805 32.3679V30.3237C78.5807 30.3112 78.5824 30.299 78.5824 30.2868C78.5824 30.2746 78.5812 30.2624 78.5805 30.2505V30.244L78.5824 30.2438Z" fill="#F16521"/>
</g>
<path fill-rule="evenodd" clip-rule="evenodd" d="M61.985 12.4067C59.3597 12.4067 57.0214 13.2208 55.2164 16.0713C54.0677 13.3022 51.6475 12.3253 49.2273 12.3253C47.2992 12.3253 44.961 13.058 43.8947 15.094V13.0493C43.8947 12.8258 43.7121 12.6448 43.487 12.6448H39.2975C39.0723 12.6448 38.8899 12.8258 38.8899 13.0493V15.6099V17.6005V27.802V29.8065V32.3533C38.8899 32.5766 39.0723 32.7578 39.2975 32.7578H43.487C43.7121 32.7578 43.8947 32.5766 43.8947 32.3533V29.8065V22.0163C43.8947 19.3694 45.4945 16.9671 48.2018 16.9671C50.9501 16.9671 52.345 19.3694 52.345 22.0163V29.8065L52.3578 29.8218V32.3612C52.3578 32.5846 52.5403 32.7657 52.7654 32.7657H56.9549C57.18 32.7657 57.3627 32.5846 57.3627 32.3612V26.8556H57.3495V22.0163C57.3495 19.3694 59.0313 17.0485 61.7388 17.0485C64.4461 17.0485 65.5539 19.288 65.5539 21.9346V27.802H65.5535V32.3533C65.5535 32.5766 65.7361 32.7578 65.9611 32.7578H70.1506C70.3759 32.7578 70.5584 32.5766 70.5584 32.3533V29.8065V27.802V21.9346C70.5584 15.9084 67.7279 12.4067 61.985 12.4067Z" fill="#F16521"/>
<path fill-rule="evenodd" clip-rule="evenodd" d="M57.3292 8.46757C56.3229 9.47645 54.6912 9.47645 53.6849 8.46757C52.6786 7.45869 52.6786 5.82291 53.6849 4.81403C54.6912 3.80515 56.3229 3.80515 57.3292 4.81403C58.3355 5.82291 58.3355 7.45869 57.3292 8.46757Z" fill="#F16521"/>
<path fill-rule="evenodd" clip-rule="evenodd" d="M67.7058 8.21684C66.3711 9.55497 64.207 9.55497 62.8723 8.21684C61.5377 6.87871 61.5377 4.70912 62.8723 3.37099C64.207 2.03303 66.3711 2.03303 67.7058 3.37099C69.0405 4.70912 69.0405 6.87871 67.7058 8.21684Z" fill="#F16521"/>
<path fill-rule="evenodd" clip-rule="evenodd" d="M79.4605 7.88242C77.6804 9.66711 74.7942 9.66711 73.0137 7.88242C71.2337 6.09773 71.2337 3.20403 73.0137 1.41917C74.7942 -0.365514 77.6804 -0.365514 79.4605 1.41917C81.2409 3.20403 81.2409 6.09773 79.4605 7.88242Z" fill="#1CA78B"/>
<path fill-rule="evenodd" clip-rule="evenodd" d="M94.7848 27.2813C94.7848 27.2813 93.8616 27.5813 93.2705 27.7289C92.68 27.8773 92.175 27.9515 91.7568 27.9515C91.4366 27.9515 91.1349 27.9144 90.852 27.8405C90.5685 27.7661 90.3167 27.6308 90.0948 27.4333C89.8733 27.2359 89.6943 26.9644 89.5593 26.6187C89.4239 26.2733 89.3564 25.8289 89.3564 25.2859V14.4898H94.504C94.7269 14.4898 94.9075 14.3067 94.9075 14.0812V9.88096C94.9075 9.65528 94.7269 9.47219 94.504 9.47219H89.3564V3.31003H87.6207C87.2268 5.55604 86.4946 7.3823 85.4237 8.78896C84.3528 10.1961 82.9554 11.2574 81.2324 11.9729V14.3794H84.0388V24.9157C84.0388 26.2485 84.1556 27.4089 84.3898 28.3954C84.6235 29.3829 84.999 30.1975 85.5159 30.8391C86.0329 31.4812 86.7218 31.9561 87.5837 32.2644C88.4452 32.5725 90.088 32.752 91.343 32.7272C94.3185 32.6687 95.517 31.8625 96.0591 31.5162L94.7848 27.2813Z" fill="#F16521"/>
</svg>
