<svg width="27" height="27" viewBox="0 0 27 27" fill="none" xmlns="http://www.w3.org/2000/svg">
<path d="M19.768 24.318H2.74544C1.47189 24.318 0.439453 23.2856 0.439453 22.012C0.439453 20.7385 1.47189 19.7061 2.74544 19.7061H19.768C21.0416 19.7061 22.074 20.7385 22.074 22.012C22.074 23.2856 21.0416 24.318 19.768 24.318Z" fill="#F16521"/>
<path d="M21.45 10.249L22.6367 9.06227L23.8234 10.249L25.0102 9.06227L25.0752 9.12729V3.42351C25.0752 1.85698 23.8053 0.587006 22.2387 0.587006H14.1567V10.4458H18.8797L20.2633 9.0622L21.45 10.249Z" fill="#F16521"/>
<path d="M18.8797 10.4458L20.2633 9.06227L20.995 9.794V3.42351C20.995 2.13358 21.8564 1.0455 23.0351 0.701164C22.7823 0.627347 22.5152 0.587006 22.2386 0.587006H14.1567V10.4458H18.8797V10.4458Z" fill="#D95129"/>
<path d="M19.239 22.8163H3.25377C2.84113 22.8163 2.50659 22.4817 2.50659 22.0691C2.50659 21.6564 2.84113 21.3219 3.25377 21.3219H19.2391C19.6518 21.3219 19.9863 21.6564 19.9863 22.0691C19.9862 22.4817 19.6517 22.8163 19.239 22.8163Z" fill="#D95129"/>
<path d="M22.0726 0.587006H6.08724C4.52071 0.587006 3.25073 1.85691 3.25073 3.42351V22.0685H19.236V3.42351C19.2361 1.85698 20.506 0.587006 22.0726 0.587006Z" fill="#F16521"/>
<path d="M5.5376 5.46632H12.0487V6.96405H5.5376V5.46632Z" fill="white"/>
<path d="M14.7141 5.46632H17.0011V6.96405H14.7141V5.46632Z" fill="white"/>
<path d="M5.5376 9.55315H12.0487V11.0509H5.5376V9.55315Z" fill="white"/>
<path d="M14.7141 9.55315H17.0011V11.0509H14.7141V9.55315Z" fill="white"/>
<path d="M5.5376 13.7653H12.0487V15.263H5.5376V13.7653Z" fill="white"/>
<path d="M14.7141 13.7653H17.0011V15.263H14.7141V13.7653Z" fill="white"/>
<path d="M18.8997 11.2528C14.7159 11.2528 11.3242 14.6445 11.3242 18.8283C11.3242 23.0122 14.7159 26.4039 18.8997 26.4039C23.0836 26.4039 26.4753 23.0122 26.4753 18.8283C26.4753 14.6445 23.0836 11.2528 18.8997 11.2528Z" fill="#F16521"/>
<path fill-rule="evenodd" clip-rule="evenodd" d="M23.5632 18.5614C23.5632 15.9461 21.4719 13.8183 18.9013 13.8183C16.5469 13.8183 14.5583 15.6081 14.2756 17.9817C14.2468 18.2243 14.42 18.4444 14.6627 18.4732C14.9036 18.5028 15.1255 18.329 15.1544 18.0861C15.3838 16.1576 16.9949 14.7031 18.9013 14.7031C20.9839 14.7031 22.6784 16.4339 22.6784 18.5614C22.6784 20.3577 21.4688 21.8667 19.8392 22.2943L20.3738 21.5314C20.5141 21.3312 20.4656 21.0553 20.2655 20.9151C20.0657 20.7746 19.7894 20.8235 19.6494 21.0235L18.5389 22.608L18.5372 22.6113C18.5283 22.624 18.5212 22.638 18.514 22.6519L18.514 22.6519L18.5097 22.6602C18.5078 22.6639 18.5057 22.6675 18.5036 22.6711L18.5036 22.6712C18.5004 22.6765 18.4973 22.6819 18.4949 22.6874C18.4914 22.6958 18.4888 22.7046 18.4863 22.7134L18.4863 22.7134L18.4823 22.7266L18.4781 22.739C18.4746 22.7493 18.471 22.7595 18.4688 22.7699C18.4677 22.7756 18.4671 22.7814 18.4666 22.7872C18.4661 22.7916 18.4657 22.7959 18.465 22.8002L18.4644 22.8046C18.462 22.8219 18.4595 22.8393 18.4593 22.8566L18.4591 22.8593L18.4588 22.8619C18.4588 22.868 18.4597 22.8737 18.4605 22.8794L18.4605 22.8794C18.4611 22.8836 18.4617 22.8877 18.4619 22.892L18.4622 22.8964C18.4632 22.9119 18.4642 22.9273 18.467 22.9425C18.4693 22.9544 18.4727 22.9659 18.4762 22.9775C18.4767 22.9794 18.4773 22.9813 18.4779 22.9832L18.4799 22.9903C18.4831 23.0018 18.4863 23.0131 18.4907 23.0243C18.4951 23.0354 18.5005 23.0458 18.506 23.0563L18.506 23.0563L18.5095 23.063L18.5118 23.0675C18.5174 23.0786 18.523 23.0896 18.5296 23.1002C18.5365 23.1108 18.5442 23.1205 18.5519 23.1303L18.5557 23.1351L18.5617 23.1428C18.5683 23.1511 18.5748 23.1594 18.5821 23.1672C18.5934 23.179 18.6058 23.1892 18.6184 23.1997L18.619 23.2002C18.6221 23.2028 18.625 23.2056 18.6279 23.2083C18.632 23.2123 18.6362 23.2163 18.6409 23.2199L20.1953 24.3516C20.2739 24.4086 20.365 24.4363 20.4553 24.4363C20.592 24.4363 20.7269 24.3732 20.8134 24.2542C20.957 24.0567 20.9136 23.78 20.7161 23.6362L20.0515 23.1524C22.0668 22.6292 23.5632 20.7722 23.5632 18.5614ZM16.7313 21.7154C16.6477 21.6585 16.5658 21.5939 16.4875 21.5236C16.3059 21.3599 16.0259 21.3749 15.8628 21.5563C15.6994 21.7379 15.714 22.0175 15.8956 22.181C16.0031 22.2779 16.1168 22.3673 16.2334 22.4467C16.3097 22.4987 16.3964 22.5237 16.482 22.5237C16.6236 22.5237 16.7627 22.456 16.8481 22.3301C16.9855 22.1281 16.9333 21.8529 16.7313 21.7154ZM15.5075 20.2711C15.5089 20.2751 15.5103 20.2791 15.5112 20.2832C15.5179 20.3135 15.5216 20.3447 15.5216 20.3768C15.5216 20.4073 15.5185 20.4372 15.5125 20.466C15.4714 20.6677 15.2929 20.8203 15.0792 20.8203L15.0772 20.8201C15.0361 20.8199 14.9971 20.8126 14.9595 20.802C14.95 20.7993 14.9409 20.7967 14.9317 20.7933C14.8952 20.7803 14.8604 20.7641 14.829 20.7427C14.8271 20.7414 14.8254 20.7399 14.8237 20.7384C14.8222 20.7371 14.8208 20.7358 14.8193 20.7347C14.791 20.7141 14.7657 20.6898 14.7432 20.6633C14.7416 20.6613 14.7399 20.6594 14.7383 20.6576C14.734 20.6525 14.7297 20.6476 14.7257 20.6423C14.7029 20.612 14.6835 20.5792 14.6691 20.5436C14.6687 20.5426 14.6682 20.5418 14.6676 20.541C14.6672 20.5403 14.6667 20.5397 14.6664 20.539C14.6038 20.404 14.5563 20.2877 14.518 20.1751C14.4395 19.9437 14.5631 19.6924 14.7945 19.6139C15.0259 19.5344 15.2772 19.6592 15.3557 19.8904C15.3856 19.978 15.4247 20.0726 15.4794 20.1881C15.4799 20.1893 15.4803 20.1907 15.4807 20.192C15.4811 20.1933 15.4815 20.1946 15.482 20.1959C15.4913 20.2164 15.4982 20.2383 15.5041 20.2604C15.5051 20.2641 15.5063 20.2676 15.5075 20.2711Z" fill="white"/>
<path d="M14.2756 17.9817L14.0444 17.9541L14.0444 17.9543L14.2756 17.9817ZM14.6627 18.4732L14.6911 18.2421L14.6901 18.242L14.6627 18.4732ZM15.1544 18.0861L15.3856 18.1136L15.3856 18.1136L15.1544 18.0861ZM19.8392 22.2943L19.6486 22.1607L19.2843 22.6806L19.8983 22.5195L19.8392 22.2943ZM20.3738 21.5314L20.5645 21.665L20.5645 21.6649L20.3738 21.5314ZM20.2655 20.9151L20.1316 21.1055L20.1319 21.1057L20.2655 20.9151ZM19.6494 21.0235L19.84 21.1571L19.8401 21.157L19.6494 21.0235ZM18.5389 22.608L18.3483 22.4744L18.3402 22.486L18.3335 22.4985L18.5389 22.608ZM18.5372 22.6113L18.7282 22.7442L18.7361 22.733L18.7425 22.7209L18.5372 22.6113ZM18.514 22.6519L18.3069 22.5455L18.3058 22.5478L18.514 22.6519ZM18.514 22.6519L18.7209 22.7585L18.7222 22.756L18.514 22.6519ZM18.5097 22.6602L18.3028 22.5536L18.3025 22.5541L18.5097 22.6602ZM18.5036 22.6711L18.6976 22.8005L18.7043 22.789L18.5036 22.6711ZM18.5036 22.6712L18.3096 22.5418L18.3028 22.5533L18.5036 22.6712ZM18.4949 22.6874L18.2809 22.5957L18.2804 22.5971L18.4949 22.6874ZM18.4863 22.7134L18.7073 22.7871L18.7098 22.7783L18.4863 22.7134ZM18.4863 22.7134L18.2653 22.6398L18.2633 22.6463L18.4863 22.7134ZM18.4823 22.7266L18.703 22.8011L18.7052 22.7936L18.4823 22.7266ZM18.4781 22.739L18.6981 22.815L18.6986 22.8135L18.4781 22.739ZM18.4688 22.7699L18.2411 22.7216L18.2405 22.7243L18.4688 22.7699ZM18.4666 22.7872L18.2348 22.7649L18.2348 22.7649L18.4666 22.7872ZM18.465 22.8002L18.235 22.7644L18.2346 22.7676L18.465 22.8002ZM18.4644 22.8046L18.6949 22.8373L18.6949 22.8372L18.4644 22.8046ZM18.4593 22.8566L18.6913 22.876L18.692 22.8677L18.6921 22.8594L18.4593 22.8566ZM18.4591 22.8593L18.2271 22.8399L18.2271 22.84L18.4591 22.8593ZM18.4588 22.8619L18.2269 22.8426L18.2261 22.8523V22.8619H18.4588ZM18.4605 22.8794L18.6915 22.8505L18.6909 22.8466L18.4605 22.8794ZM18.4605 22.8794L18.2295 22.9083L18.23 22.9122L18.4605 22.8794ZM18.4619 22.892L18.6942 22.8771L18.6942 22.8769L18.4619 22.892ZM18.4622 22.8964L18.6945 22.8815L18.6945 22.8814L18.4622 22.8964ZM18.467 22.9425L18.2382 22.9852L18.2384 22.986L18.467 22.9425ZM18.4762 22.9775L18.2531 23.044L18.2531 23.044L18.4762 22.9775ZM18.4779 22.9832L18.7019 22.9199L18.7011 22.9173L18.4779 22.9832ZM18.4799 22.9903L18.704 22.9274L18.7039 22.927L18.4799 22.9903ZM18.4907 23.0243L18.2741 23.1095L18.2741 23.1095L18.4907 23.0243ZM18.506 23.0563L18.7142 22.9522L18.7122 22.9483L18.506 23.0563ZM18.506 23.0563L18.2978 23.1604L18.2996 23.1639L18.506 23.0563ZM18.5095 23.063L18.7171 22.9577L18.7159 22.9554L18.5095 23.063ZM18.5118 23.0675L18.7194 22.9622L18.7193 22.9621L18.5118 23.0675ZM18.5296 23.1002L18.3326 23.2242L18.3338 23.2261L18.5296 23.1002ZM18.5519 23.1303L18.7345 22.9859L18.7343 22.9857L18.5519 23.1303ZM18.5557 23.1351L18.7386 22.9912L18.7383 22.9907L18.5557 23.1351ZM18.5617 23.1428L18.7451 22.9993L18.7447 22.9988L18.5617 23.1428ZM18.5821 23.1672L18.412 23.3262L18.4144 23.3287L18.5821 23.1672ZM18.6184 23.1997L18.47 23.379L18.4701 23.3791L18.6184 23.1997ZM18.619 23.2002L18.7701 23.023L18.7674 23.0208L18.619 23.2002ZM18.6279 23.2083L18.4668 23.3764L18.4668 23.3764L18.6279 23.2083ZM18.6409 23.2199L18.5012 23.4061L18.5039 23.4081L18.6409 23.2199ZM20.1953 24.3516L20.0583 24.5398L20.0585 24.5399L20.1953 24.3516ZM20.8134 24.2542L21.0017 24.3911L21.0017 24.3911L20.8134 24.2542ZM20.7161 23.6362L20.5791 23.8244L20.5791 23.8244L20.7161 23.6362ZM20.0515 23.1524L19.9931 22.9271L19.5165 23.0508L19.9145 23.3406L20.0515 23.1524ZM16.4875 21.5236L16.3317 21.6965L16.332 21.6967L16.4875 21.5236ZM16.7313 21.7154L16.8624 21.523L16.8622 21.5229L16.7313 21.7154ZM15.8628 21.5563L16.0359 21.712L16.036 21.7119L15.8628 21.5563ZM15.8956 22.181L16.0514 22.0081L16.0513 22.008L15.8956 22.181ZM16.2334 22.4467L16.1023 22.6391L16.1023 22.6391L16.2334 22.4467ZM16.8481 22.3301L16.6556 22.1992L16.6555 22.1994L16.8481 22.3301ZM15.5112 20.2832L15.7386 20.2334L15.7381 20.2314L15.5112 20.2832ZM15.5075 20.2711L15.2875 20.3472L15.2875 20.3472L15.5075 20.2711ZM15.5125 20.466L15.2846 20.4186L15.2845 20.4194L15.5125 20.466ZM15.0792 20.8203L15.0535 21.0517L15.0663 21.0531H15.0792V20.8203ZM15.0772 20.8201L15.1029 20.5888L15.0907 20.5874L15.0785 20.5873L15.0772 20.8201ZM14.9595 20.802L15.0228 20.5779L15.0221 20.5778L14.9595 20.802ZM14.9317 20.7933L14.8533 21.0125L14.8534 21.0126L14.9317 20.7933ZM14.829 20.7427L14.6971 20.9345L14.6977 20.9349L14.829 20.7427ZM14.8237 20.7384L14.67 20.9132L14.6701 20.9133L14.8237 20.7384ZM14.8193 20.7347L14.9569 20.547L14.9561 20.5464L14.8193 20.7347ZM14.7432 20.6633L14.5653 20.8134L14.5658 20.814L14.7432 20.6633ZM14.7383 20.6576L14.9149 20.5059L14.9149 20.5059L14.7383 20.6576ZM14.7257 20.6423L14.5396 20.7821L14.5402 20.7828L14.7257 20.6423ZM14.6691 20.5436L14.4511 20.6253L14.4532 20.6307L14.6691 20.5436ZM14.6676 20.541L14.4741 20.6704L14.4741 20.6704L14.6676 20.541ZM14.6664 20.539L14.8805 20.4472L14.8776 20.441L14.6664 20.539ZM14.518 20.1751L14.2976 20.2499L14.2976 20.25L14.518 20.1751ZM14.7945 19.6139L14.8693 19.8343L14.8701 19.834L14.7945 19.6139ZM15.3557 19.8904L15.1353 19.9652L15.1354 19.9655L15.3557 19.8904ZM15.4794 20.1881L15.6913 20.0918L15.6898 20.0886L15.4794 20.1881ZM15.4807 20.192L15.2572 20.2571L15.2572 20.2572L15.4807 20.192ZM15.482 20.1959L15.6942 20.1L15.6939 20.0995L15.482 20.1959ZM15.5041 20.2604L15.7296 20.2025L15.7289 20.1998L15.5041 20.2604ZM18.9013 14.0511C21.3396 14.0511 23.3304 16.0709 23.3304 18.5614H23.796C23.796 15.8213 21.6043 13.5855 18.9013 13.5855V14.0511ZM14.5067 18.0092C14.7758 15.7499 16.6676 14.0511 18.9013 14.0511V13.5855C16.4263 13.5855 14.3408 15.4663 14.0444 17.9541L14.5067 18.0092ZM14.6901 18.242C14.5753 18.2284 14.4931 18.1242 14.5067 18.009L14.0444 17.9543C14.0006 18.3244 14.2648 18.6604 14.6353 18.7043L14.6901 18.242ZM14.9233 18.0585C14.9095 18.174 14.8035 18.256 14.6911 18.2421L14.6343 18.7042C15.0037 18.7497 15.3414 18.4839 15.3856 18.1136L14.9233 18.0585ZM18.9013 14.4704C16.8736 14.4704 15.1662 16.0164 14.9233 18.0586L15.3856 18.1136C15.6015 16.2988 17.1162 14.9359 18.9013 14.9359V14.4704ZM22.9112 18.5614C22.9112 16.31 21.1171 14.4704 18.9013 14.4704V14.9359C20.8507 14.9359 22.4456 16.5577 22.4456 18.5614H22.9112ZM19.8983 22.5195C21.63 22.0651 22.9112 20.4637 22.9112 18.5614H22.4456C22.4456 20.2516 21.3076 21.6684 19.7801 22.0692L19.8983 22.5195ZM20.1832 21.3978L19.6486 22.1607L20.0298 22.4279L20.5645 21.665L20.1832 21.3978ZM20.1319 21.1057C20.2267 21.1722 20.2498 21.3028 20.1832 21.3978L20.5645 21.6649C20.7784 21.3596 20.7046 20.9385 20.399 20.7244L20.1319 21.1057ZM19.8401 21.157C19.9065 21.0622 20.0375 21.0393 20.1316 21.1055L20.3994 20.7247C20.094 20.5099 19.6723 20.5849 19.4587 20.89L19.8401 21.157ZM18.7296 22.7416L19.84 21.1571L19.4588 20.8899L18.3483 22.4744L18.7296 22.7416ZM18.7425 22.7209L18.7443 22.7175L18.3335 22.4985L18.3318 22.5018L18.7425 22.7209ZM18.7211 22.7582C18.725 22.7506 18.7268 22.7471 18.7284 22.7442C18.7298 22.7417 18.7297 22.7422 18.7282 22.7442L18.3461 22.4784C18.3268 22.5061 18.3128 22.5341 18.3069 22.5456L18.7211 22.7582ZM18.7222 22.756L18.7222 22.756L18.3058 22.5478L18.3058 22.5478L18.7222 22.756ZM18.7166 22.7669L18.7209 22.7585L18.3071 22.5452L18.3028 22.5536L18.7166 22.7669ZM18.7043 22.789C18.7058 22.7864 18.7115 22.777 18.7169 22.7663L18.3025 22.5541L18.3028 22.5533L18.7043 22.789ZM18.6973 22.8003L18.6973 22.8003L18.3099 22.542L18.3099 22.542L18.6973 22.8003ZM18.7089 22.7791C18.7062 22.7853 18.7039 22.7896 18.7032 22.7908C18.7027 22.7918 18.7024 22.7922 18.7043 22.789L18.3028 22.5533C18.3011 22.5562 18.2901 22.5743 18.2809 22.5957L18.7089 22.7791ZM18.7098 22.7783L18.7094 22.7778L18.2804 22.5971C18.2707 22.62 18.2646 22.6419 18.2627 22.6485L18.7098 22.7783ZM18.7071 22.787L18.7071 22.787L18.2654 22.6398L18.2654 22.6398L18.7071 22.787ZM18.7052 22.7936L18.7092 22.7805L18.2633 22.6463L18.2594 22.6595L18.7052 22.7936ZM18.6986 22.8135L18.7028 22.8011L18.2618 22.6521L18.2576 22.6645L18.6986 22.8135ZM18.6965 22.8182C18.6956 22.8224 18.6949 22.8246 18.6952 22.8237C18.6956 22.8225 18.6962 22.8207 18.6981 22.815L18.2581 22.663C18.2554 22.6708 18.2468 22.6947 18.2411 22.7216L18.6965 22.8182ZM18.6983 22.8095C18.6986 22.8061 18.6986 22.8061 18.6985 22.8067C18.6984 22.8075 18.698 22.8108 18.6971 22.8156L18.2405 22.7243C18.2367 22.7435 18.2352 22.7611 18.2348 22.7649L18.6983 22.8095ZM18.6951 22.836C18.6969 22.8239 18.6979 22.8127 18.6983 22.8095L18.2348 22.7649L18.235 22.7644L18.6951 22.836ZM18.6949 22.8372L18.6955 22.8329L18.2346 22.7676L18.234 22.7719L18.6949 22.8372ZM18.6921 22.8594C18.692 22.8606 18.692 22.8599 18.6924 22.8559C18.6929 22.8516 18.6936 22.8466 18.6949 22.8373L18.234 22.7718C18.2319 22.7866 18.2269 22.8189 18.2265 22.8539L18.6921 22.8594ZM18.691 22.8787L18.6913 22.876L18.2273 22.8373L18.2271 22.8399L18.691 22.8787ZM18.6908 22.8813L18.691 22.8786L18.2271 22.84L18.2269 22.8426L18.6908 22.8813ZM18.6909 22.8466C18.6904 22.843 18.6906 22.8444 18.6909 22.8464C18.6911 22.8489 18.6916 22.8545 18.6916 22.8619H18.2261C18.2261 22.887 18.2295 22.9088 18.23 22.9122L18.6909 22.8466ZM18.6915 22.8505L18.6915 22.8505L18.2295 22.9083L18.2295 22.9083L18.6915 22.8505ZM18.6942 22.8769C18.6933 22.8623 18.6913 22.8494 18.6909 22.8466L18.23 22.9122C18.2304 22.9147 18.2303 22.9145 18.2303 22.914C18.2302 22.9132 18.2299 22.9107 18.2297 22.9072L18.6942 22.8769ZM18.6945 22.8814L18.6942 22.8771L18.2296 22.907L18.2299 22.9113L18.6945 22.8814ZM18.6959 22.8998C18.6961 22.9012 18.696 22.9009 18.6957 22.8977C18.6954 22.8941 18.6951 22.8899 18.6945 22.8815L18.2299 22.9112C18.2308 22.9244 18.2324 22.9539 18.2382 22.9852L18.6959 22.8998ZM18.6993 22.911C18.6974 22.9047 18.6965 22.9018 18.6959 22.8994C18.6953 22.8973 18.6954 22.8974 18.6957 22.8989L18.2384 22.986C18.2432 23.0115 18.2502 23.0342 18.2531 23.044L18.6993 22.911ZM18.7011 22.9173C18.7005 22.915 18.6998 22.9128 18.6993 22.911L18.2531 23.044C18.2537 23.0459 18.2542 23.0475 18.2546 23.0491L18.7011 22.9173ZM18.7039 22.927L18.7019 22.9199L18.2539 23.0465L18.2559 23.0536L18.7039 22.927ZM18.7073 22.9391C18.7079 22.9405 18.7079 22.9408 18.7073 22.9388C18.7066 22.9364 18.7057 22.9336 18.704 22.9274L18.2558 23.0533C18.2585 23.063 18.2647 23.0857 18.2741 23.1095L18.7073 22.9391ZM18.7122 22.9483C18.7092 22.9426 18.708 22.9402 18.707 22.9382C18.7062 22.9366 18.7066 22.9372 18.7073 22.9391L18.2741 23.1095C18.2838 23.1342 18.2952 23.1555 18.2998 23.1642L18.7122 22.9483ZM18.7142 22.9522L18.7142 22.9522L18.2978 23.1604L18.2978 23.1604L18.7142 22.9522ZM18.7159 22.9554L18.7124 22.9487L18.2996 23.1639L18.3031 23.1706L18.7159 22.9554ZM18.7193 22.9621L18.7171 22.9577L18.3019 23.1684L18.3042 23.1728L18.7193 22.9621ZM18.7266 22.9762C18.7271 22.9769 18.7267 22.9764 18.7255 22.974C18.724 22.9713 18.7224 22.9682 18.7194 22.9622L18.3041 23.1727C18.3089 23.1822 18.3193 23.203 18.3326 23.2242L18.7266 22.9762ZM18.7343 22.9857C18.7302 22.9804 18.7281 22.9779 18.7264 22.9756C18.725 22.9737 18.7249 22.9734 18.7254 22.9743L18.3338 23.2261C18.3479 23.248 18.3628 23.2665 18.3695 23.2749L18.7343 22.9857ZM18.7383 22.9907L18.7345 22.9859L18.3694 23.2748L18.3732 23.2796L18.7383 22.9907ZM18.7447 22.9988L18.7386 22.9912L18.3728 23.2791L18.3788 23.2867L18.7447 22.9988ZM18.7521 23.0083C18.753 23.0092 18.753 23.0093 18.7517 23.0077C18.7503 23.0059 18.7486 23.0038 18.7451 22.9993L18.3784 23.2862C18.3839 23.2933 18.3966 23.3097 18.412 23.3262L18.7521 23.0083ZM18.7668 23.0204C18.7601 23.0148 18.7564 23.0117 18.7532 23.0089C18.7503 23.0064 18.7495 23.0055 18.7497 23.0058L18.4144 23.3287C18.4363 23.3515 18.459 23.3699 18.47 23.379L18.7668 23.0204ZM18.7674 23.0208L18.7668 23.0203L18.4701 23.3791L18.4707 23.3796L18.7674 23.0208ZM18.789 23.0403C18.7869 23.0383 18.7791 23.0308 18.77 23.0231L18.468 23.3773C18.4662 23.3758 18.465 23.3747 18.4649 23.3746C18.4648 23.3745 18.4649 23.3746 18.4652 23.3749C18.4656 23.3752 18.466 23.3756 18.4668 23.3764L18.789 23.0403ZM18.7806 23.0336C18.7855 23.0373 18.7888 23.0403 18.7901 23.0414C18.791 23.0422 18.7915 23.0427 18.7889 23.0403L18.4668 23.3764C18.4694 23.3789 18.4834 23.3927 18.5012 23.4061L18.7806 23.0336ZM20.3323 24.1634L18.7779 23.0317L18.5039 23.4081L20.0583 24.5398L20.3323 24.1634ZM20.4553 24.2035C20.4127 24.2035 20.3698 24.1906 20.3322 24.1633L20.0585 24.5399C20.1779 24.6267 20.3173 24.6691 20.4553 24.6691V24.2035ZM20.6251 24.1174C20.5844 24.1734 20.5209 24.2035 20.4553 24.2035V24.6691C20.663 24.6691 20.8694 24.5731 21.0017 24.3911L20.6251 24.1174ZM20.5791 23.8244C20.6725 23.8924 20.6933 24.0236 20.6251 24.1174L21.0017 24.3911C21.2206 24.0898 21.1547 23.6675 20.853 23.448L20.5791 23.8244ZM19.9145 23.3406L20.5791 23.8244L20.8531 23.448L20.1886 22.9642L19.9145 23.3406ZM23.3304 18.5614C23.3304 20.6654 21.9064 22.4304 19.9931 22.9271L20.11 23.3777C22.2271 22.8281 23.796 20.879 23.796 18.5614H23.3304ZM16.332 21.6967C16.4175 21.7735 16.5075 21.8447 16.6004 21.9079L16.8622 21.5229C16.7879 21.4723 16.7142 21.4143 16.6431 21.3504L16.332 21.6967ZM16.036 21.7119C16.113 21.6262 16.2457 21.619 16.3317 21.6965L16.6434 21.3507C16.3661 21.1007 15.9387 21.1237 15.6897 21.4007L16.036 21.7119ZM16.0513 22.008C15.9653 21.9306 15.9583 21.7982 16.0359 21.712L15.6898 21.4006C15.4404 21.6777 15.4626 22.1045 15.7398 22.354L16.0513 22.008ZM16.3644 22.2543C16.2567 22.1809 16.1513 22.0981 16.0514 22.0081L15.7397 22.3539C15.8549 22.4577 15.9769 22.5536 16.1023 22.6391L16.3644 22.2543ZM16.482 22.2909C16.4419 22.2909 16.4011 22.2793 16.3644 22.2543L16.1023 22.6391C16.2183 22.718 16.3509 22.7564 16.482 22.7564V22.2909ZM16.6555 22.1994C16.6154 22.2585 16.55 22.2909 16.482 22.2909V22.7564C16.6971 22.7564 16.9101 22.6534 17.0407 22.4608L16.6555 22.1994ZM16.6002 21.9077C16.696 21.973 16.7207 22.1034 16.6556 22.1992L17.0406 22.461C17.2502 22.1528 17.1705 21.7329 16.8624 21.523L16.6002 21.9077ZM15.7381 20.2314C15.7339 20.2128 15.7282 20.1969 15.7275 20.1949L15.2875 20.3472C15.2884 20.3497 15.288 20.3487 15.2876 20.3472C15.287 20.3454 15.2857 20.3411 15.2843 20.3351L15.7381 20.2314ZM15.7544 20.3768C15.7544 20.3264 15.7485 20.2785 15.7386 20.2334L15.2838 20.333C15.2872 20.3486 15.2888 20.3631 15.2888 20.3768H15.7544ZM15.7405 20.5133C15.7497 20.4688 15.7544 20.4231 15.7544 20.3768H15.2888C15.2888 20.3916 15.2873 20.4056 15.2846 20.4186L15.7405 20.5133ZM15.0792 21.0531C15.4064 21.0531 15.678 20.8198 15.7406 20.5125L15.2845 20.4194C15.2649 20.5156 15.1794 20.5876 15.0792 20.5876V21.0531ZM15.0515 21.0515L15.0535 21.0517L15.1049 20.589L15.1029 20.5888L15.0515 21.0515ZM14.8963 21.026C14.9473 21.0404 15.0078 21.0525 15.076 21.0529L15.0785 20.5873C15.0643 20.5873 15.0469 20.5848 15.0228 20.5779L14.8963 21.026ZM14.8534 21.0126C14.8706 21.0187 14.886 21.0231 14.897 21.0262L15.0221 20.5778C15.014 20.5755 15.0113 20.5746 15.01 20.5741L14.8534 21.0126ZM14.6977 20.9349C14.75 20.9706 14.804 20.9949 14.8533 21.0125L15.01 20.5742C14.9863 20.5657 14.9708 20.5577 14.9603 20.5505L14.6977 20.9349ZM14.6701 20.9133C14.6701 20.9133 14.682 20.9241 14.6971 20.9345L14.9609 20.5509C14.9673 20.5553 14.972 20.5591 14.9746 20.5612C14.9768 20.563 14.9786 20.5646 14.9773 20.5635L14.6701 20.9133ZM14.6816 20.9224C14.677 20.919 14.6735 20.9162 14.6717 20.9147C14.6702 20.9134 14.669 20.9123 14.67 20.9132L14.9773 20.5635C14.9772 20.5634 14.9681 20.5552 14.9569 20.547L14.6816 20.9224ZM14.5658 20.814C14.5982 20.8522 14.6368 20.8898 14.6825 20.923L14.9561 20.5464C14.9452 20.5385 14.9333 20.5275 14.9205 20.5125L14.5658 20.814ZM14.5617 20.8092C14.5634 20.8112 14.5644 20.8123 14.5653 20.8134L14.9211 20.5132C14.9187 20.5104 14.9165 20.5077 14.9149 20.5059L14.5617 20.8092ZM14.5402 20.7828C14.5492 20.7947 14.5581 20.805 14.5617 20.8092L14.9149 20.5059C14.9126 20.5032 14.9116 20.502 14.9108 20.5011C14.9102 20.5004 14.9105 20.5007 14.9113 20.5017L14.5402 20.7828ZM14.4532 20.6307C14.4764 20.6881 14.5068 20.7384 14.5397 20.7821L14.9118 20.5024C14.8991 20.4855 14.8905 20.4703 14.8849 20.4565L14.4532 20.6307ZM14.4741 20.6704C14.475 20.6717 14.4714 20.6665 14.4676 20.66C14.4634 20.6528 14.457 20.6409 14.4511 20.6253L14.887 20.4619C14.8808 20.4453 14.874 20.4326 14.8692 20.4245C14.8668 20.4204 14.8648 20.4172 14.8634 20.4151C14.8627 20.414 14.8622 20.4132 14.8618 20.4126C14.8615 20.4121 14.8611 20.4116 14.8611 20.4116L14.4741 20.6704ZM14.4525 20.6307C14.4583 20.6442 14.4642 20.6546 14.4679 20.6606C14.4698 20.6637 14.4714 20.6662 14.4724 20.6678C14.4729 20.6685 14.4733 20.6692 14.4736 20.6696C14.4739 20.67 14.4741 20.6704 14.4741 20.6704L14.8611 20.4116C14.8604 20.4105 14.8631 20.4145 14.8661 20.4194C14.8693 20.4247 14.8749 20.4344 14.8804 20.4473L14.4525 20.6307ZM14.2976 20.25C14.3391 20.3722 14.3901 20.4964 14.4553 20.6369L14.8776 20.441C14.8176 20.3116 14.7734 20.2031 14.7384 20.1002L14.2976 20.25ZM14.7197 19.3934C14.3663 19.5134 14.1778 19.897 14.2976 20.2499L14.7384 20.1003C14.7011 19.9904 14.7599 19.8714 14.8693 19.8343L14.7197 19.3934ZM15.5761 19.8155C15.4565 19.4633 15.0732 19.2721 14.7189 19.3937L14.8701 19.834C14.9786 19.7968 15.0979 19.8551 15.1353 19.9652L15.5761 19.8155ZM15.6898 20.0886C15.6378 19.9786 15.6023 19.8923 15.576 19.8153L15.1354 19.9655C15.1688 20.0636 15.2117 20.1667 15.269 20.2877L15.6898 20.0886ZM15.7042 20.1268C15.7041 20.1267 15.7037 20.1254 15.7033 20.1239C15.7028 20.1223 15.7021 20.12 15.7012 20.1171C15.6993 20.1116 15.6962 20.1025 15.6913 20.0918L15.2675 20.2844C15.2631 20.2749 15.2604 20.2671 15.259 20.2629C15.2578 20.2591 15.2568 20.2558 15.2572 20.2571L15.7042 20.1268ZM15.6939 20.0995C15.6983 20.109 15.701 20.1168 15.7024 20.1211C15.7036 20.1249 15.7046 20.1281 15.7042 20.1268L15.2572 20.2572C15.2573 20.2573 15.2577 20.2586 15.2581 20.2601C15.2586 20.2616 15.2593 20.264 15.2602 20.2669C15.2621 20.2724 15.2652 20.2815 15.2701 20.2922L15.6939 20.0995ZM15.7289 20.1998C15.7215 20.1726 15.7109 20.1371 15.6942 20.1L15.2699 20.2917C15.2717 20.2958 15.2748 20.304 15.2794 20.3211L15.7289 20.1998ZM15.7275 20.1949C15.7267 20.1928 15.7269 20.1933 15.7272 20.1942C15.7276 20.1953 15.7285 20.1983 15.7296 20.2025L15.2787 20.3184C15.2824 20.3327 15.2868 20.3452 15.2875 20.3472L15.7275 20.1949Z" fill="white"/>
</svg>
