<svg width="27" height="39" viewBox="0 0 27 39" fill="none" xmlns="http://www.w3.org/2000/svg">
<path fill-rule="evenodd" clip-rule="evenodd" d="M3.44351 0.943832H19.2079C20.6833 0.943832 21.879 2.13978 21.879 3.61488V35.4604C18.8803 37.5302 15.2449 38.7434 11.3257 38.7434C7.40653 38.7434 3.77112 37.5302 0.772461 35.4604V3.61488C0.772461 2.13978 1.96841 0.943832 3.44351 0.943832ZM17.8123 3.0352C17.8123 3.39165 17.5233 3.68033 17.1669 3.68033C16.8104 3.68033 16.5215 3.39165 16.5215 3.0352C16.5215 2.67876 16.8104 2.38979 17.1669 2.38979C17.5233 2.38979 17.8123 2.67876 17.8123 3.0352ZM8.27124 3.56602H14.2945C14.5878 3.56602 14.8257 3.3281 14.8257 3.03452C14.8257 2.74095 14.5878 2.50303 14.2945 2.50303H8.27124C7.97766 2.50303 7.73974 2.74095 7.73974 3.03452C7.73974 3.3281 7.97766 3.56602 8.27124 3.56602ZM3.11592 35.4139H19.5442C19.8456 35.4139 20.0898 35.1696 20.0898 34.8686V5.65604C20.0898 5.35496 19.8456 5.11069 19.5442 5.11069H3.11592C2.81484 5.11069 2.57058 5.35467 2.57058 5.65604V34.8686C2.57058 35.1696 2.81455 35.4139 3.11592 35.4139Z" fill="#F16521"/>
<path d="M20.0864 11.0147V26.3684C20.1161 26.3676 20.1458 26.3656 20.1758 26.3656H21.8799V11.0147H20.0864Z" fill="#48762F"/>
<path d="M16.5846 10.1065C11.102 10.1065 6.65747 14.5511 6.65747 20.0337C6.65747 25.5163 11.102 29.9608 16.5846 29.9608C22.0672 29.9608 26.5118 25.5163 26.5118 20.0337C26.5118 14.5511 22.0672 10.1065 16.5846 10.1065Z" fill="#F16521"/>
<path fill-rule="evenodd" clip-rule="evenodd" d="M21.7411 18.1246C21.8511 18.1243 21.9568 18.0831 22.0343 18.0094C22.1118 17.9361 22.1555 17.8362 22.1552 17.7326C22.1548 17.6303 22.1108 17.532 22.0329 17.4605C21.9551 17.3887 21.8498 17.3497 21.7411 17.3516H18.4337C18.3247 17.3494 18.2191 17.3887 18.1413 17.4608C18.0631 17.5326 18.019 17.6312 18.019 17.7339C18.0187 17.8378 18.0624 17.9374 18.1403 18.0107C18.2181 18.0843 18.3234 18.1258 18.4337 18.1258L21.7411 18.1246ZM21.7398 20.4667C21.962 20.4583 22.1375 20.2863 22.1375 20.0766C22.1375 19.8672 21.962 19.695 21.7398 19.6865L15.9503 19.6922C15.841 19.6909 15.7356 19.7305 15.6578 19.8029C15.58 19.875 15.5363 19.9736 15.5363 20.0766C15.5366 20.2919 15.7217 20.4667 15.9503 20.467L21.7398 20.4667ZM21.743 22.8083C21.893 22.8123 22.0335 22.7393 22.1096 22.6173C22.1861 22.4956 22.1861 22.3442 22.1096 22.2225C22.0335 22.1008 21.893 22.0275 21.743 22.0315H15.9538C15.8038 22.0275 15.6634 22.1008 15.5869 22.2225C15.5107 22.3442 15.5107 22.4956 15.5869 22.6173C15.6634 22.7393 15.8038 22.8123 15.9538 22.8083H21.743ZM16.6478 18.0159C16.7263 17.9423 16.7703 17.8421 16.7703 17.7379C16.7703 17.6333 16.7263 17.5331 16.6478 17.4595L13.7766 14.3441C13.597 14.194 13.3268 14.194 13.1473 14.3441L10.275 17.4595C10.1694 17.5587 10.1283 17.7035 10.1667 17.839C10.2052 17.9747 10.3174 18.0808 10.4612 18.1173C10.6053 18.1539 10.7586 18.1152 10.8643 18.0159L13.0545 15.6376V25.1514H13.8825V15.6507L16.0619 18.0159C16.2238 18.1676 16.4855 18.1676 16.6478 18.0159ZM15.9538 24.3697C15.7315 24.3781 15.556 24.5503 15.556 24.7597C15.556 24.9694 15.7315 25.1414 15.9538 25.1498H21.7433C21.9655 25.1414 22.1411 24.9694 22.1411 24.7597C22.1411 24.5503 21.9655 24.3781 21.7433 24.3697H15.9538ZM21.7432 15.7825C21.8532 15.7828 21.9585 15.7416 22.0364 15.6683C22.1139 15.5953 22.1576 15.4957 22.1572 15.3921C22.1566 15.2901 22.1122 15.1921 22.0344 15.1209C21.9565 15.0498 21.8515 15.0111 21.7432 15.0133L16.7781 15.0017C16.5559 15.0101 16.3803 15.1824 16.3803 15.3918C16.3803 15.6015 16.5559 15.7735 16.7781 15.7819L21.7432 15.7825Z" fill="white"/>
<path d="M21.7411 18.1246L21.7413 18.4156L21.742 18.4156L21.7411 18.1246ZM22.0343 18.0094L21.8343 17.7981L21.8338 17.7985L22.0343 18.0094ZM22.1552 17.7326L22.4461 17.7317V17.7317L22.1552 17.7326ZM22.0329 17.4605L21.8357 17.6744L21.8361 17.6748L22.0329 17.4605ZM21.7411 17.3516V17.6426L21.7462 17.6425L21.7411 17.3516ZM18.4337 17.3516L18.4279 17.6426H18.4337V17.3516ZM18.1413 17.4608L18.3381 17.6751L18.339 17.6743L18.1413 17.4608ZM18.019 17.7339L18.31 17.7348V17.7339H18.019ZM18.1403 18.0107L18.3403 17.7993L18.3398 17.7989L18.1403 18.0107ZM18.4337 18.1258V18.4168H18.4338L18.4337 18.1258ZM21.7398 20.4667L21.7398 20.7579L21.7508 20.7575L21.7398 20.4667ZM21.7398 19.6865L21.7508 19.3956L21.7395 19.3956L21.7398 19.6865ZM15.9503 19.6922L15.9469 19.9831L15.9505 19.9831L15.9503 19.6922ZM15.6578 19.8029L15.8555 20.0164L15.856 20.016L15.6578 19.8029ZM15.5363 20.0766H15.2453L15.2453 20.0771L15.5363 20.0766ZM15.9503 20.467L15.9499 20.758H15.9503L15.9503 20.467ZM21.743 22.8083L21.7509 22.5173H21.743V22.8083ZM22.1096 22.6173L21.8633 22.4624L21.8628 22.4632L22.1096 22.6173ZM22.1096 22.2225L21.863 22.3769L21.8633 22.3774L22.1096 22.2225ZM21.743 22.0315V22.3226L21.7509 22.3224L21.743 22.0315ZM15.9538 22.0315L15.946 22.3225H15.9538V22.0315ZM15.5869 22.2225L15.3405 22.0676L15.3402 22.0681L15.5869 22.2225ZM15.5869 22.6173L15.3402 22.7717L15.3403 22.7718L15.5869 22.6173ZM15.9538 22.8083V22.5172L15.946 22.5174L15.9538 22.8083ZM16.6478 17.4595L16.4338 17.6567L16.441 17.6645L16.4487 17.6717L16.6478 17.4595ZM13.7766 14.3441L13.9905 14.1469L13.9777 14.133L13.9632 14.1209L13.7766 14.3441ZM13.1473 14.3441L12.9606 14.1209L12.9461 14.133L12.9333 14.1469L13.1473 14.3441ZM10.275 17.4595L10.4742 17.6716L10.4819 17.6644L10.489 17.6567L10.275 17.4595ZM10.1667 17.839L10.4467 17.7597L10.4467 17.7596L10.1667 17.839ZM10.4612 18.1173L10.3895 18.3994L10.3897 18.3994L10.4612 18.1173ZM10.8643 18.0159L11.0635 18.228L11.0711 18.2208L11.0783 18.213L10.8643 18.0159ZM13.0545 15.6376H13.3455V14.8922L12.8405 15.4405L13.0545 15.6376ZM13.0545 25.1514H12.7636V25.4424H13.0545V25.1514ZM13.8825 25.1514V25.4424H14.1735V25.1514H13.8825ZM13.8825 15.6507L14.0965 15.4536L13.5916 14.9056V15.6507H13.8825ZM16.0619 18.0159L15.8479 18.2131L15.8552 18.221L15.863 18.2283L16.0619 18.0159ZM15.9538 24.3697V24.0785L15.9428 24.0789L15.9538 24.3697ZM15.9538 25.1498L15.9428 25.4408H15.9538V25.1498ZM21.7433 25.1498V25.441L21.7543 25.4406L21.7433 25.1498ZM21.7433 24.3697L21.7543 24.0787H21.7433V24.3697ZM21.7432 15.7825L21.7441 15.4915L21.7433 15.4915L21.7432 15.7825ZM22.0364 15.6683L22.2359 15.8801L22.0364 15.6683ZM22.1572 15.3921L22.4482 15.3912L22.4482 15.3902L22.1572 15.3921ZM21.7432 15.0133L21.7426 15.3043L21.7491 15.3042L21.7432 15.0133ZM16.7781 15.0017L16.7788 14.7105L16.7671 14.7109L16.7781 15.0017ZM16.7781 15.7819L16.7671 16.0729L16.7781 16.0729L16.7781 15.7819ZM21.742 18.4156C21.923 18.4151 22.101 18.3474 22.2347 18.2204L21.8338 17.7985C21.8125 17.8188 21.7792 17.8335 21.7403 17.8336L21.742 18.4156ZM22.2343 18.2208C22.3679 18.0944 22.4467 17.9186 22.4461 17.7317L21.8642 17.7336C21.8642 17.7539 21.8557 17.7779 21.8343 17.7981L22.2343 18.2208ZM22.4461 17.7317C22.4455 17.5456 22.3654 17.3707 22.2297 17.2462L21.8361 17.6748C21.8562 17.6932 21.8641 17.715 21.8642 17.7336L22.4461 17.7317ZM22.2302 17.2466C22.0951 17.1221 21.9165 17.0576 21.7361 17.0607L21.7462 17.6425C21.783 17.6419 21.8151 17.6554 21.8357 17.6744L22.2302 17.2466ZM21.7411 17.0606H18.4337V17.6426H21.7411V17.0606ZM18.4395 17.0607C18.258 17.057 18.0786 17.1223 17.9435 17.2473L18.339 17.6743C18.3596 17.6552 18.3915 17.6418 18.4279 17.6425L18.4395 17.0607ZM17.9445 17.2465C17.8084 17.3715 17.7281 17.5469 17.7281 17.7339H18.31C18.31 17.7155 18.3178 17.6937 18.3381 17.6751L17.9445 17.2465ZM17.7281 17.733C17.7275 17.9203 17.8065 18.096 17.9407 18.2225L18.3398 17.7989C18.3184 17.7787 18.3099 17.7553 18.31 17.7348L17.7281 17.733ZM17.9403 18.222C18.0735 18.3481 18.2509 18.4168 18.4337 18.4168V17.8349C18.3959 17.8349 18.3627 17.8206 18.3403 17.7993L17.9403 18.222ZM18.4338 18.4168L21.7413 18.4156L21.741 17.8336L18.4336 17.8349L18.4338 18.4168ZM21.7508 20.7575C22.1135 20.7437 22.4285 20.4581 22.4285 20.0766H21.8466C21.8466 20.1146 21.8105 20.1728 21.7287 20.1759L21.7508 20.7575ZM22.4285 20.0766C22.4285 19.6956 22.1137 19.4095 21.7508 19.3958L21.7287 19.9773C21.8103 19.9804 21.8466 20.0388 21.8466 20.0766H22.4285ZM21.7395 19.3956L15.95 19.4012L15.9505 19.9831L21.74 19.9775L21.7395 19.3956ZM15.9536 19.4012C15.7727 19.3991 15.5944 19.4645 15.4596 19.5899L15.856 20.016C15.8769 19.9965 15.9092 19.9827 15.9469 19.9831L15.9536 19.4012ZM15.4601 19.5895C15.3247 19.7149 15.2453 19.8901 15.2453 20.0766H15.8272C15.8272 20.0572 15.8353 20.0352 15.8555 20.0164L15.4601 19.5895ZM15.2453 20.0771C15.2459 20.4685 15.5771 20.7575 15.9499 20.758L15.9507 20.176C15.8663 20.1759 15.8273 20.1154 15.8272 20.0762L15.2453 20.0771ZM15.9503 20.758L21.7398 20.7577L21.7397 20.1757L15.9502 20.176L15.9503 20.758ZM21.7351 23.0991C21.9825 23.1058 22.2226 22.9857 22.3565 22.7714L21.8628 22.4632C21.8443 22.4929 21.8035 22.5188 21.7509 22.5174L21.7351 23.0991ZM22.356 22.7721C22.492 22.5558 22.492 22.284 22.356 22.0677L21.8633 22.3774C21.8803 22.4044 21.8803 22.4354 21.8633 22.4624L22.356 22.7721ZM22.3563 22.0681C22.2227 21.8547 21.9829 21.734 21.7351 21.7407L21.7509 22.3224C21.8032 22.321 21.8443 22.3469 21.863 22.3769L22.3563 22.0681ZM21.743 21.7405H15.9538V22.3225H21.743V21.7405ZM15.9617 21.7407C15.7138 21.734 15.4744 21.8547 15.3405 22.0677L15.8332 22.3774C15.8524 22.3469 15.8938 22.321 15.946 22.3224L15.9617 21.7407ZM15.3402 22.0681C15.2049 22.2843 15.2049 22.5555 15.3402 22.7717L15.8335 22.4629C15.8164 22.4356 15.8164 22.4042 15.8335 22.3769L15.3402 22.0681ZM15.3403 22.7718C15.4744 22.9856 15.7142 23.1058 15.9617 23.0991L15.946 22.5174C15.8934 22.5188 15.8523 22.493 15.8334 22.4627L15.3403 22.7718ZM15.9538 23.0992H21.743V22.5173H15.9538V23.0992ZM16.8469 18.2281C16.982 18.1013 17.0613 17.9251 17.0613 17.7379H16.4794C16.4794 17.7591 16.4705 17.7832 16.4487 17.8037L16.8469 18.2281ZM17.0613 17.7379C17.0613 17.5504 16.9821 17.3742 16.8469 17.2473L16.4487 17.6717C16.4704 17.6921 16.4794 17.7162 16.4794 17.7379H17.0613ZM16.8617 17.2623L13.9905 14.1469L13.5626 14.5413L16.4338 17.6567L16.8617 17.2623ZM13.9632 14.1209C13.6757 13.8804 13.2482 13.8804 12.9606 14.1209L13.3339 14.5673C13.4054 14.5076 13.5184 14.5076 13.5899 14.5673L13.9632 14.1209ZM12.9333 14.1469L10.0611 17.2623L10.489 17.6567L13.3612 14.5413L12.9333 14.1469ZM10.0758 17.2474C9.89338 17.4188 9.8178 17.6751 9.88681 17.9184L10.4467 17.7596C10.4388 17.732 10.4454 17.6987 10.4742 17.6716L10.0758 17.2474ZM9.88676 17.9182C9.95522 18.1601 10.1516 18.3389 10.3895 18.3994L10.5328 17.8353C10.4833 17.8227 10.4551 17.7893 10.4467 17.7597L9.88676 17.9182ZM10.3897 18.3994C10.6273 18.4596 10.8834 18.3971 11.0635 18.228L10.665 17.8038C10.6338 17.8332 10.5832 17.8481 10.5327 17.8353L10.3897 18.3994ZM11.0783 18.213L13.2686 15.8347L12.8405 15.4405L10.6502 17.8188L11.0783 18.213ZM12.7636 15.6376V25.1514H13.3455V15.6376H12.7636ZM13.0545 25.4424H13.8825V24.8604H13.0545V25.4424ZM14.1735 25.1514V15.6507H13.5916V25.1514H14.1735ZM13.6686 15.8479L15.8479 18.2131L16.2759 17.8187L14.0965 15.4536L13.6686 15.8479ZM15.863 18.2283C16.137 18.4849 16.5724 18.4846 16.8465 18.2285L16.4491 17.8033C16.3985 17.8506 16.3107 17.8503 16.2608 17.8035L15.863 18.2283ZM15.9428 24.0789C15.5798 24.0926 15.265 24.3788 15.265 24.7597H15.847C15.847 24.7219 15.8832 24.6635 15.9648 24.6604L15.9428 24.0789ZM15.265 24.7597C15.265 25.1412 15.58 25.4268 15.9428 25.4406L15.9648 24.8591C15.8831 24.856 15.847 24.7977 15.847 24.7597H15.265ZM15.9538 25.4408H21.7433V24.8589H15.9538V25.4408ZM21.7543 25.4406C22.1171 25.4268 22.432 25.1412 22.432 24.7597H21.8501C21.8501 24.7977 21.814 24.856 21.7323 24.8591L21.7543 25.4406ZM22.432 24.7597C22.432 24.3788 22.1172 24.0926 21.7543 24.0789L21.7323 24.6604C21.8138 24.6635 21.8501 24.7219 21.8501 24.7597H22.432ZM21.7433 24.0787H15.9538V24.6606H21.7433V24.0787ZM21.7424 16.0735C21.9249 16.074 22.1025 16.0058 22.2359 15.8801L21.8368 15.4565C21.8145 15.4775 21.7815 15.4916 21.7441 15.4915L21.7424 16.0735ZM22.2359 15.8801C22.3698 15.7539 22.4488 15.5782 22.4482 15.3912L21.8663 15.393C21.8663 15.4132 21.8579 15.4367 21.8368 15.4565L22.2359 15.8801ZM22.4482 15.3902C22.447 15.2042 22.3661 15.03 22.2307 14.9062L21.838 15.3357C21.8583 15.3542 21.8662 15.3759 21.8663 15.394L22.4482 15.3902ZM22.2307 14.9062C22.0958 14.7829 21.9177 14.7187 21.7374 14.7223L21.7491 15.3042C21.7854 15.3034 21.8173 15.3167 21.838 15.3357L22.2307 14.9062ZM21.7439 14.7223L16.7788 14.7107L16.7774 15.2927L21.7426 15.3042L21.7439 14.7223ZM16.7671 14.7109C16.4042 14.7247 16.0894 15.0108 16.0894 15.3918H16.6713C16.6713 15.354 16.7076 15.2956 16.7891 15.2925L16.7671 14.7109ZM16.0894 15.3918C16.0894 15.7732 16.4043 16.0589 16.7671 16.0726L16.7891 15.4911C16.7074 15.488 16.6713 15.4298 16.6713 15.3918H16.0894ZM16.7781 16.0729L21.7432 16.0735L21.7433 15.4915L16.7781 15.4909L16.7781 16.0729Z" fill="white"/>
</svg>
