<svg width="30" height="30" viewBox="0 0 30 30" fill="none" xmlns="http://www.w3.org/2000/svg">
<g clip-path="url(#clip0)">
<path d="M23.0437 5.026H8.03543C7.5705 5.026 7.1936 4.6491 7.1936 4.18417V3.76294C7.1936 3.28892 6.80931 2.90463 6.33529 2.90463H1.82209C0.874045 2.90463 0.105469 3.67315 0.105469 4.62126V19.0655L2.30805 8.34968C2.38852 7.95823 2.73303 7.67732 3.13266 7.67732H24.7604V6.74262C24.7604 5.79452 23.9918 5.026 23.0437 5.026Z" fill="#F16521"/>
<path d="M27.4848 9.36087H3.81803L0.505549 25.4761C0.396889 26.0049 0.800726 26.5002 1.34056 26.5002H25.9685C26.8435 26.5002 27.5785 25.8421 27.6747 24.9723L29.191 11.2663C29.3035 10.2496 28.5076 9.36087 27.4848 9.36087Z" fill="#F16521"/>
</g>
<defs>
<clipPath id="clip0">
<rect width="29.0972" height="29.0972" fill="white" transform="translate(0.105469 0.153976)"/>
</clipPath>
</defs>
</svg>
